<?xml version="1.0" encoding="utf-8"?>
<!DOCTYPE svg PUBLIC "-//W3C//DTD SVG 1.1//EN" "http://www.w3.org/Graphics/SVG/1.1/DTD/svg11.dtd">
<svg version="1.1" id="Layer_1" xmlns="http://www.w3.org/2000/svg" xmlns:xlink="http://www.w3.org/1999/xlink" x="0px" y="0px" width="17px" height="17px" viewBox="0 0 17 17" xml:space="preserve">
<symbol id="CheckMark" viewBox="-3.665 -3.037 7.33 6.073">
  <path style="fill:#FFFFFF;" d="M3.629,2.417c-0.038,0.135-0.104,0.259-0.193,0.36C3.289,2.942,3.088,3.036,2.881,3.036
    c-0.207,0-0.408-0.094-0.554-0.259l-3.269-3.689L-2.327,0.65c-0.146,0.165-0.347,0.259-0.554,0.259S-3.289,0.815-3.435,0.65
    s-0.23-0.392-0.23-0.625c0-0.234,0.083-0.46,0.23-0.625l1.141-1.288l0.789-0.89c0.146-0.165,0.347-0.259,0.554-0.259
    c0.003,0,0.006,0,0.008,0c0.003,0,0.006,0,0.009,0c0.207,0,0.408,0.094,0.554,0.259l3.815,4.304c0.146,0.165,0.23,0.392,0.23,0.625
    C3.665,2.242,3.653,2.332,3.629,2.417z"/>
</symbol>
<circle cx="8.5" cy="8.5" r="7.5" fill="#7DBA00" />
<use xlink:href="#CheckMark"  width="7.33" height="6.073" id="XMLID_1_" x="-5.165" y="-0.233" transform="matrix(1 0 0 -1 10.1667 11.429)" style="overflow:visible;"/>
</svg>
