<?xml version="1.0" encoding="utf-8"?>
<!-- Generator: Adobe Illustrator 22.1.0, SVG Export Plug-In . SVG Version: 6.00 Build 0)  -->
<svg version="1.1" id="Layer_1" xmlns="http://www.w3.org/2000/svg" xmlns:xlink="http://www.w3.org/1999/xlink" x="0px" y="0px"
	 viewBox="0 0 82 82" style="enable-background:new 0 0 82 82;" xml:space="preserve">
<style type="text/css">
	.st0{fill:#009DE2;}
	.st1{opacity:0.7;fill:#FFFFFF;}
</style>
<circle class="st0" cx="41" cy="41" r="40"/>
<path class="st1" d="M26.8,38.6c0.3-0.4,1.3,1.1,1.9,1.1c0.4,0-0.4-0.8-0.8-1.8c-0.2-0.8,0.1-2.1-0.1-2.3c-0.2-0.3-0.6,1.5-0.9,2
	S25.3,37,25,36c-0.3-0.9-0.5-1.9-1.3-2.4c-1.6-0.9-2.1-3.1-2-4.8c0-1.7-0.6-3.3-1.8-4.5C19,23.4,19,23,19.5,21.9
	c1-2.1,2.1-4.3,1.1-6.6c-0.1-0.3-0.1-0.6-0.1-0.8c0-0.1,0.1-0.2,0.2-0.2l0,0c5.7,0.2,12.4,0.6,18.3,0.9c0,0.6-0.3,10.7-0.4,15.3
	c-0.1,0.9,0.3,1.6,0.9,2.1c7.2,6.5,14.8,13.6,22,20.2c0.5,0.6,0.9,1.3,1.2,2c0.6,1.1,1.4,1.5,1.8,2.6c-0.4,1.1-1.4,2.2-1.3,3.2
	c0.1,0.6-0.5,1.5-0.5,2.1s0.1,1.3,0.4,1.8c0.7,1.2,0.6,1.6-0.7,1.7c-3.3,0.4-8.1,0.9-11.4,1.3c-0.9,0.1-0.1-1.4-1.6-2.1
	c-0.6-2.8-1.6-3.8-4-4.8c-0.9-1-2.1-1.6-3.5-1.8c-0.2-0.1-1-0.3-1.1-0.4c-0.9-1.4-1.8-1.3-3.2-1.3h-0.2c-2.3-0.1-2.7-0.5-2.8-2.7
	c-0.6-1.6-1.3-3.6-2.3-4.1c-1.1-1.6-1.8-2.4-3.1-4c-0.4-0.6-0.6-1.1,0.3-1.6c0.4-0.4,0.5-0.9,0.4-1.3c-0.2-0.4-0.9-0.6-1.3-0.9
	c-0.5-0.2-1.7-0.6-1.4-1.8C27.3,39.9,26.3,39.4,26.8,38.6z"/>
</svg>
