<?xml version="1.0" encoding="utf-8"?>
<!-- Generator: Adobe Illustrator 22.1.0, SVG Export Plug-In . SVG Version: 6.00 Build 0)  -->
<svg version="1.1" id="Layer_1" xmlns="http://www.w3.org/2000/svg" xmlns:xlink="http://www.w3.org/1999/xlink" x="0px" y="0px"
	 viewBox="0 0 82 82" style="enable-background:new 0 0 82 82;" xml:space="preserve">
<style type="text/css">
	.st0{fill:#0BC1B6;}
	.st1{opacity:0.7;fill:#FFFFFF;}
</style>
<circle class="st0" cx="41" cy="41" r="40"/>
<path class="st1" d="M68.9,50.8c0.4-2.5-5.3-10.5-5.3-10.5C61.8,37,63,36.4,63,36.4c-0.7-1-2.3-2.5-2.3-2.5
	c-2.1-1.2-5.4-9.7-5.4-9.7c-0.8-2-1.1-3.6-1.3-4.9h-3.6c-0.2,0-0.4-0.1-0.5-0.1c-0.2,0-0.3,0-0.4,0.1c0,0.1,0.3,0.6,0.6,0.9l0.1,0.1
	L50.1,23H48v-1.4l-17.3,0.9l-1.5-1.6l-16.6,1.5V23l1.4,1l0.1,4.3c0.5-0.1,0.9-0.2,0.9-0.2c3.3-1.3,7.6-1,7.6-1
	c1.3,0,4.1,1.5,4.1,1.5c4.1,1.6,2.8,3.1,2.8,3.1c3.8-0.2,5.2-2.6,5.2-2.6c0.7-2.1,3-1.8,3-1.8c0,0.5,2.1,0.8,2.1,0.8
	c1.2,1.6,2.3,1.8,2.3,1.8c0.4,1.3,1.3,1.6,1.3,1.6c0.7,0.1,0.7,1.6,0.7,1.6c0.4-0.7,2.5,0.2,2.5,0.2c0.5,1.5,1.1,1.3,1.1,1.3
	c1.3,1.2,0.1,5.2,0.1,5.2c-0.5,2.8,1.5,4.6,1.5,4.6c0.7-1-0.4-1.8-0.4-2.3s2.6,0.7,2.6,0.7c0.6,0.5-2.1,3-2.1,3s0,0,0,0.4
	s3.8,4.5,3.8,4.5c2.3-4,1.5,1.8,1.5,1.8c2.1,0.8,1.8,2.6,1.8,2.6c1.8,3,2.3,1.6,2.3,1.6c1.6-0.6,3.4,3.1,3.4,3.1
	c-0.2,2.6,1.2,2.5,1.2,2.5c0.2-1.2,1.6-0.6,1.6-0.6c1.8-0.4,3.1-2.1,3.1-2.1c-0.6-2.3,1-3.3,1-3.3C68.5,55.5,68.9,50.8,68.9,50.8z"
	/>
</svg>
