<?xml version="1.0" encoding="utf-8"?>
<!-- Generator: Adobe Illustrator 22.1.0, SVG Export Plug-In . SVG Version: 6.00 Build 0)  -->
<svg version="1.1" id="Layer_1" xmlns="http://www.w3.org/2000/svg" xmlns:xlink="http://www.w3.org/1999/xlink" x="0px" y="0px"
	 viewBox="0 0 82 82" style="enable-background:new 0 0 82 82;" xml:space="preserve">
<style type="text/css">
	.st0{fill:#0BC1B6;}
	.st1{opacity:0.75;fill:#FFFFFF;enable-background:new    ;}
</style>
<circle class="st0" cx="41" cy="41" r="40"/>
<path class="st1" d="M22.7,25.9c-0.1-0.6-0.6-1-1.2-1.1l-2-0.2c-0.2,0-0.5,0-0.7,0.1l-1.9,0.9c-0.4,0.2-0.7,0.5-0.8,0.9l-0.5,1.8
	c0,0.1,0,0.2,0,0.4c0-0.1,0-0.1-0.1-0.2l-0.1-0.4C15.2,27.3,14.6,27,14,27l-1.1,0.1c-0.4,0.1-0.8,0.3-1,0.7l-0.9,1.7
	c-0.2,0.4-0.2,0.9,0,1.3c0.2,0.4,0.7,0.7,1.2,0.7h1.1c0.5,0,0.9-0.2,1.1-0.6l1-1.5c0.2-0.2,0.2-0.5,0.2-0.8c0.1,0.4,0.4,0.8,0.8,1
	l2.9,1.2c0.2,0.1,0.5,0.1,0.7,0.1l1-0.1c0.5,0,0.9-0.4,1.1-0.8l0.7-1.8c0.1-0.2,0.1-0.5,0.1-0.8L22.7,25.9z"/>
<path class="st1" d="M38.6,34.1l-1.1-0.7L36.8,32l-1-1.7c-0.4-0.6-1.1-0.9-1.8-0.5l-2.8,1.4c-0.3,0.2-0.6,0.4-0.7,0.8l-0.3,0.9
	c-0.2,0.4-0.1,0.9,0.1,1.2l1.8,2.6c0.3,0.4,0.8,0.7,1.3,0.6l1.1-0.1h0.1l0.1,0.1c0.3,0.2,0.6,0.3,0.9,0.3h0.1l1.8-0.1
	c0.4,0,0.8-0.2,1.1-0.6L39,36c0.2-0.3,0.3-0.7,0.2-1.1C39.1,34.6,38.9,34.3,38.6,34.1z"/>
<path class="st1" d="M66.7,52.9l-1.6-1l-0.7-1.7c0-0.1-0.1-0.2-0.1-0.2l-0.8-1.1c-0.1-0.2-0.3-0.3-0.4-0.4l-1.6-1l-0.1-0.1l-5.3-2.5
	c-0.5-0.2-1-0.1-1.4,0.2L54,45.7c-0.3,0.3-0.5,0.7-0.5,1.1l0,0.9c0,0.3,0.1,0.6,0.3,0.8l0.1,0.1l-0.5,0.7l-0.7,0.3
	c-0.5,0.2-0.9,0.8-0.8,1.4l0.1,1.2c0,0.4,0.2,0.7,0.5,0.9l0.7,0.6l0.5,2l-0.2,0.8c0,0.1,0,0.3,0,0.4l0.1,2.1c0,0.4,0.2,0.8,0.6,1
	l1.7,1.2c0.2,0.1,0.4,0.2,0.6,0.2l0.9,0.1h0.2c0.4,0,0.8-0.2,1.1-0.5l1.1-1.4l1-1.3l0.7-0.4h0.1c0.3,0.1,0.7,0.1,1,0l2-0.7
	c0.1-0.1,0.3-0.1,0.4-0.2l1.8-1.5c0.2-0.2,0.4-0.4,0.5-0.7l0.1-0.6C67.5,53.8,67.2,53.2,66.7,52.9z"/>
<path class="st1" d="M53.4,43.9l1.7-0.9c0.5-0.2,0.8-0.7,0.8-1.2v-0.9c0-0.5-0.2-0.9-0.7-1.2l-2.1-1.2c-0.1-0.1-0.2-0.1-0.4-0.2
	l-1.9-0.5l-2.1-1.1c-0.1,0-0.1-0.1-0.2-0.1c0-0.1-0.1-0.3-0.2-0.4c-0.2-0.3-0.6-0.5-1-0.6l-2.9-0.3c-0.2,0-0.5,0-0.7,0.1l-1.6-0.3
	c-0.5-0.1-1.1,0.1-1.4,0.6L40,36.7c-0.2,0.4-0.3,0.8-0.2,1.2c0.1,0.4,0.5,0.7,0.9,0.9l1.6,0.5v0.7c0,0.2,0,0.4,0.1,0.6l0.9,1.8
	c0.3,0.6,1,0.9,1.7,0.7l1.5-0.5c0.3-0.1,0.6-0.3,0.7-0.6l1.1,1.3c0.1,0.1,0.2,0.2,0.4,0.3l1.1,0.7c0.2,0.1,0.5,0.2,0.7,0.2
	c0.1,0,0.2,0,0.3,0L53,44C53.1,44,53.3,44,53.4,43.9z"/>
</svg>
