<?xml version="1.0" encoding="utf-8"?>
<!-- Generator: Adobe Illustrator 22.1.0, SVG Export Plug-In . SVG Version: 6.00 Build 0)  -->
<svg version="1.1" id="Layer_1" xmlns="http://www.w3.org/2000/svg" xmlns:xlink="http://www.w3.org/1999/xlink" x="0px" y="0px"
	 viewBox="0 0 82 82" style="enable-background:new 0 0 82 82;" xml:space="preserve">
<style type="text/css">
	.st0{fill:#0BC1B6;}
	.st1{opacity:0.7;fill:#FFFFFF;}
</style>
<ellipse class="st0" cx="41" cy="41" rx="40" ry="40"/>
<path class="st1" d="M49.5,13.4L49.5,13.4L49.5,13.4l-17,1.6l-4.8-0.4c-0.3,0-0.5,0.2-0.6,0.4c0,0.1,0,0.2,0.1,0.3l1.2,2.6
	c0,0,0,0.1,0.1,0.1l2.3,3.1L29.6,25l-5,2.6c-0.2,0.1-0.4,0.4-0.2,0.6l1.4,2.9l-2.1,4.1l0,0l-2.1,4.4c-0.1,0.1-0.1,0.3,0,0.4l3.8,8.2
	c0.1,0.1,0.1,0.2,0.2,0.2l3.5,1.8V53c0,0.2,0.1,0.4,0.4,0.5l4.3,1.3L32,60.4c-0.1,0.1,0,0.4,0.1,0.5l4,4.4c0.1,0.1,0.2,0.1,0.4,0.1
	h1.8l1.6,3.1v2.4c0,0.1,0.1,0.2,0.1,0.4l2.1,2.4c0.2,0.2,0.5,0.2,0.7,0.1c0,0,0,0,0.1-0.1l2.2-2.5l4.1,0.6c0.3,0.1,0.5-0.1,0.6-0.4
	c0-0.1,0-0.2-0.1-0.4l-1.1-1.8l2.4-1.3c0.1-0.1,0.3-0.3,0.3-0.4v-2.2l0.8-0.9c0.1-0.1,0.1-0.2,0.1-0.3l0.3-4.4l2.9-4
	c0.1-0.1,0.1-0.1,0.1-0.2l0.4-2.6c0-0.1,0-0.2-0.1-0.4l-1.7-2.8l0.4-4v-0.1l-2.1-24.2c0-0.1,0-0.1-0.1-0.2L50,17.7v-3.8
	C50,13.6,49.7,13.4,49.5,13.4z"/>
</svg>
