<?xml version="1.0" encoding="utf-8"?>
<!-- Generator: Adobe Illustrator 22.1.0, SVG Export Plug-In . SVG Version: 6.00 Build 0)  -->
<svg version="1.1" id="Layer_1" xmlns="http://www.w3.org/2000/svg" xmlns:xlink="http://www.w3.org/1999/xlink" x="0px" y="0px"
	 viewBox="0 0 82 82" style="enable-background:new 0 0 82 82;" xml:space="preserve">
<style type="text/css">
	.st0{fill:#00933B;}
	.st1{opacity:0.75;fill:#FFFFFF;enable-background:new    ;}
</style>
<circle class="st0" cx="41" cy="41" r="40"/>
<path class="st1" d="M54.8,51.4c0-0.1-0.1-0.1,0-0.1c0,0,0-0.1,0.1-0.1l0.5-0.4c0.6-0.5,1-1.3,1-2.1l-0.7-33.2
	c0-0.9-0.8-1.7-1.7-1.7L36.8,14c-0.6,0-1.5,0.2-2.1,0.5L32,15.8c-0.1,0.1-0.3,0.1-0.6,0.1c-0.2,0-0.4,0-0.5-0.1l-1.7-0.7
	c-0.6-0.2-1.1-0.1-1.5,0.3c-0.3,0.3-0.4,0.6-0.4,1.1l0.4,37.3c0,0.4-0.2,0.9-0.4,1.2l-3.8,5.4c-0.4,0.5-0.7,1.3-0.9,2L22,65.8
	c-0.1,0.4,0,0.9,0.3,1.1c0.2,0.3,0.6,0.4,0.9,0.4c0.1,0,0.4,0,0.5-0.1l4.4-1.5c0.3-0.1,0.9-0.1,1.1,0.1l1.8,0.9
	c0.3,0.1,0.6,0.1,0.9,0.1c0.6,0,1.1-0.2,1.6-0.6l1-0.9c0.1-0.1,0.5-0.3,0.8-0.3c0.1,0,0.1,0,0.1,0l1.5,0.3c0.1,0,0.2,0,0.3,0
	c0.8,0,1.5-0.5,1.8-1.2l0.4-1.1c0.1-0.1,0.1-0.1,0.3-0.1l3.2,1.1c0.2,0.1,0.4,0.1,0.6,0.1c0.7,0,1.3-0.4,1.7-1l0.5-0.9
	c0.2-0.4,0.6-1,1-1.3l2.5-2.4c0.6-0.6,0.9-1.5,0.7-2.3l-0.1-0.6h0.1c0.4,0.1,0.8,0.1,1.1,0.1c0.4,0,0.9-0.1,1.2-0.1l3.1-0.9
	c0.5-0.1,0.9-0.5,1-0.9c0.1-0.4,0-0.9-0.3-1.3L54.8,51.4z"/>
</svg>
