<?xml version="1.0" encoding="utf-8"?>
<!-- Generator: Adobe Illustrator 22.1.0, SVG Export Plug-In . SVG Version: 6.00 Build 0)  -->
<svg version="1.1" id="Layer_1" xmlns="http://www.w3.org/2000/svg" xmlns:xlink="http://www.w3.org/1999/xlink" x="0px" y="0px"
	 viewBox="0 0 82 82" style="enable-background:new 0 0 82 82;" xml:space="preserve">
<style type="text/css">
	.st0{fill:#0070D6;}
	.st1{opacity:0.75;fill:#FFFFFF;enable-background:new    ;}
</style>
<circle class="st0" cx="41" cy="41" r="40"/>
<path class="st1" d="M69.6,36l-0.1-1.6c0-0.1-0.1-0.4-0.1-0.5l-1-2.1c-0.1-0.4-0.4-0.6-0.8-0.7c0-0.1-0.1-0.1-0.1-0.1l-0.8-0.8
	L65.5,28l-0.7-1.7c-0.3-0.6-0.9-1-1.6-0.9L42,30l-14.1,2.2h-1.5c-0.8,0-1.4,0.6-1.4,1.3v1.1l-0.1,0.1l-0.6,0.6
	c-0.1,0.1-0.2,0.3-0.3,0.4l-0.4,0.6c-0.1,0-0.3,0-0.4,0l-0.6,0.1c-0.4,0.1-0.6,0.3-0.9,0.6l-0.2,0.4c-0.1-0.1-0.3-0.1-0.5-0.1
	c-0.4-0.1-0.8,0.1-1.1,0.4l-1.5,1.4c-0.2,0.2-0.4,0.4-0.4,0.7l-0.1,0.6L16.8,41c-0.1,0.1-0.1,0.1-0.2,0.1L15,42.4l-1.2,0.5
	c-0.1,0-0.1,0.1-0.3,0.1l-1.4,1c-0.4,0.2-0.6,0.6-0.6,0.9l-0.1,0.5h-0.1c-0.2,0.1-0.4,0.1-0.5,0.2l-0.6,0.6
	c-0.4,0.3-0.6,0.6-0.6,1.1l-0.1,1.5c0,0.4,0.1,0.8,0.4,1.1c0.3,0.3,0.7,0.4,1.1,0.4l5-0.5c0.1,0,0.1,0,0.1,0l2.4-0.4
	c0.1,0,0.2-0.1,0.3-0.1l2.5-1c0,0,0.1,0,0.1-0.1l3.2-1.6l2.4-0.3l5.6-0.1l0.4,0.3l0.4,0.9c0.3,0.5,0.9,0.8,1.4,0.7l5.9-0.7l0.7,0.2
	l4.5,2.7l3.7,3c0.3,0.2,0.6,0.3,0.9,0.3c0.1,0,0.3,0,0.4-0.1l1.8-0.5l1.6-0.1c0.6-0.1,1.1-0.5,1.2-1.1l0.1-0.9l0.6-2.1l1-1.4
	l2.1-1.7l1.6-0.8l0.4-0.1c0.1,0.1,0.4,0.1,0.6,0.1h0.5c0.5,0,0.9-0.2,1.2-0.6l1.1-1.8l0.1-0.1l0.7-1.3c0.1-0.1,0.1-0.1,0.1-0.2
	c0.3-0.1,0.6-0.2,0.7-0.4l0.4-0.4l0.9-0.7l1.1-0.5c0.5-0.2,0.8-0.7,0.9-1.2l0.1-1.3C69.6,36.2,69.6,36.1,69.6,36z M63.7,38.9
	C63.7,39,63.7,39,63.7,38.9l-0.2,0.2c-0.1,0-0.1,0.1-0.2,0.1l0.1-0.1c0.1,0,0.1-0.1,0.2-0.1L63.7,38.9z"/>
</svg>
