<?xml version="1.0" encoding="utf-8"?>
<!-- Generator: Adobe Illustrator 22.1.0, SVG Export Plug-In . SVG Version: 6.00 Build 0)  -->
<svg version="1.1" id="Layer_1" xmlns="http://www.w3.org/2000/svg" xmlns:xlink="http://www.w3.org/1999/xlink" x="0px" y="0px"
	 viewBox="0 0 82 82" style="enable-background:new 0 0 82 82;" xml:space="preserve">
<style type="text/css">
	.st0{fill:#00933B;}
	.st1{opacity:0.7;fill:#FFFFFF;}
</style>
<circle class="st0" cx="41" cy="41" r="40"/>
<path class="st1" d="M34.2,34.1c-0.2,0-0.3,0.1-0.4,0.2c-0.2,0.1-0.3,0.2-0.5,0.2c-0.3,0.1-0.6,0.2-0.8,0.3h-0.1l0.2,0.1
	c-0.1,0.2,0.2,0.3,0.1,0.5c0-0.3-0.4-0.2-0.5-0.5l0.1-0.1h-0.4c-0.9-0.2-1.8-0.2-2.7,0c-0.5,0.1-0.8,0.5-1.2,0.3s-0.7-0.5-1-0.7h0
	c-0.1-0.3-0.5-0.3-0.8-0.3s-0.6-0.2-1-0.3c-0.8,0-1.5,0.1-2.2,0.1c-0.7-0.1-1.4-0.1-2.1,0s-1.4,0.3-2.1,0.5l-1.6,0.5l0.1,0.1v0.8
	c0,0.1,0,0.2,0.1,0.3c0,0.1-0.3,0.3-0.3,0.3c0-0.1,0,0.3-0.1,0.3c0.1,0.1,0.1,0,0.1,0.1c0.2,0.1,0.6,0.1,0.8,0.1
	c0.3,0.1,0.4,0.3,0.3,0.5s-0.3,0.1-0.3,0.3c-0.1,0.1,0,0.1,0.1,0.3c0.2,0.5,0.4,0.9,0.5,1.4c0,0-0.1,0-0.1-0.1
	c0.1,0.5,0.1,0.5-0.3,0.8c-0.3,0.2-0.6,0.3-0.9,0.5C17,40.8,17,40.8,16.9,41s-0.1,0.2-0.3,0.4s-0.1,0.3-0.3,0.5s-0.1,0.3-0.5,0.3
	c-0.6,0.2-1.2,0.5-1.7,1c-0.1,0.1-0.1,0.2-0.2,0.3l-0.6,0.4c-0.3,0.3-0.7,0.5-1,0.7l-0.5,0.2l-0.1,2.7h32.4l0.1,0.1
	c-0.1,0.3,0.3,0.3,0.5,0.5c0.1,0.1,0.1,0.3,0.1,0.4c0,0.1,0.1,0.2,0.1,0.4c0.2,0,0.5,0.1,0.6-0.1c0.1,0.3,0.2,0.1,0.4,0.3
	c0.1,0.1,0.1,0.2,0.2,0.3c0.1,0.1,0.1,0,0.2,0.1c0.1,0.1-0.1,0.1-0.1,0.1c0,0.2-0.1,0.1,0,0.3c0.1,0,0.1,0.1,0.2,0.1
	c0,0.1,0.1,0.1,0.1,0.2c0,0.1,0.1,0.2,0.1,0.3s-0.1,0.1-0.1,0.1c0,0.1,0.1,0.3,0.1,0.4c0,0.2,0.1,0.4,0.1,0.5c-0.3,0-0.1,0.3,0,0.4
	c0.1,0.1,0.2,0.4,0.3,0.6s0.1,0.3,0.3,0.4s0.2-0.1,0.3,0.1c0.1,0.1,0.2,0.2,0.2,0.3c0.1-0.1,0.2-0.1,0.3,0h0.3
	c0.1,0,0.1,0.2,0.2,0.2c0.1,0,0.3-0.1,0.3-0.1c0,0.3,0.3,0.4,0.4,0.6v0.1l6,3.4L55,58.2c-0.1,0.3-0.2,0.7-0.3,1
	c-0.1,0.2-0.5,0.8-0.4,1.1s0.4-0.4,0.5-0.5c0.1-0.2,0.2-0.4,0.3-0.5s0.3-0.1,0.4-0.1s0.1,0.1,0.3-0.1c0,0.1,0.1,0.1,0.1,0.1l0.2,0.1
	L56,59c0.1-0.1,0.1-0.2,0-0.3c0.1,0.1,0.4-0.3,0.4-0.5c0.1,0,0.2,0,0.3-0.1c0-0.4,0.2-0.1,0.3-0.3c0.1-0.1,0.1-0.2,0.1-0.3v-0.3
	L56.4,56l1.7-1.2L57.6,54l0.1-7.6h-0.1v-0.3l1.5-6.6H59V39v-0.3h0.1l-0.1-7l-0.1-0.3c-0.3-0.2-0.2-0.1-0.3-0.3
	c-0.1-0.2,0-0.3-0.2-0.3c-0.5-0.1-0.3,0.4-0.5,0.6l-0.2-0.1c-0.1-0.2-0.1-0.4-0.1-0.6c0-0.3,0.1-0.5,0.3-0.7
	c0.1-0.2,0.3-0.4,0.2-0.6s-0.1-0.2-0.2-0.3c-0.1-0.1,0-0.1,0-0.3c0-0.2-0.1-0.4-0.1-0.6c-0.1-0.3-0.2-0.6-0.1-0.8v-0.3
	c-0.1-0.1-0.2-0.2-0.3-0.3c0-0.3,0.1-0.6,0.2-0.8c0-0.2,0.1-0.4,0.1-0.6c0.1-0.3,0.4-0.4,0.5-0.7c0-0.3,0-0.5-0.1-0.8
	c-0.1-0.2-0.1-0.5,0.1-0.7c0.2-0.5,0.1-1-0.3-1.4c-0.2-0.3-0.4-0.4-0.4-0.7s0.1-0.5,0.1-0.8c0-0.2,0-0.4,0.1-0.6
	c0.1-0.4,0.1-0.3-0.1-0.7c-0.1-0.2-0.1-0.5,0-0.8s0.3-0.5,0-0.8l0.1-0.3L52,17.5l-1.4,0.1h-2.5c-0.1-0.1-0.3-0.1-0.5-0.1v-0.1
	c-0.2,0-0.3,0.1-0.5,0.1c-0.1,0-0.3-0.1-0.3,0.1H47c-0.1,0.1-0.3,0.1-0.5,0.2c-0.1,0.1-0.3,0.3-0.3,0.1c-0.2,0-0.2,0.2-0.3,0.3
	c-0.1,0.1-0.2,0.2-0.4,0.2c-0.3,0.1-0.5,0.2-0.8,0.4c-0.3,0.1-0.6,0.3-0.8,0.4l-0.3,0.3c-0.1,0.1-0.2,0.2-0.3,0.3
	c-0.5,0.5-1.1,0.8-1.6,1.4c-0.5,0.5-1,1-1.3,1.7L40.3,23h0.1l0.1,0.1l-0.3,0.5c0-0.1,0-0.1-0.1-0.1c-0.1,0.1-0.3,0.2-0.3,0.3h0.1
	c0,0.1,0,0.2-0.1,0.3V24c-0.3,0.2-1,0.7-1,1.1c-0.1-0.1-0.6,0.3-0.8,0.4c-0.2,0-0.4,0.1-0.6,0.3c-0.2,0.1-0.3,0.3-0.6,0.4l-0.6,0.5
	h0.1V27h0.1c0,0.1-0.1,0.1-0.1,0.2c0.1,0,0.2,0,0.3-0.1c-0.1,0.1-0.1,0.1-0.1,0.1c0.5,0,0.1,0.3,0.2,0.5c0.1,0.1,0.2,0.1,0.2,0.2
	s0,0.2-0.1,0.3c0.5-0.1,0.3-0.5,0.6-0.6c-0.1-0.1-0.5,0.1-0.5,0.1c-0.1-0.1,0.1-0.3,0.1-0.4c0.1-0.1,0.3-0.2,0.5-0.3
	c-0.2,0.4,0.3,0.1,0.4,0.1c0,0,0,0.1-0.1,0.1h0.1c0.1-0.2,0.1,0,0,0c0.1,0,0.3-0.1,0.4-0.1c-0.1,0.2-0.3,0.3-0.5,0.5s-0.1,0.2,0,0.3
	c0.3,0.3,0.6-0.1,0.8-0.4c0,0.3,0.2,0,0.4,0.1c-0.4-0.1-0.2,0.3-0.4,0.4c-0.1-0.2-0.4,0.3-0.4,0.3c-0.1,0.2,0.1,0.3,0,0.4
	s-0.4,0.1-0.5,0.4C37.6,29,37.6,29,37.5,29c0.1-0.1,0-0.2,0.1-0.3c-0.2,0.1-0.6,0.1-0.5,0.4c0,0.1,0.1,0.1,0.2,0.1
	c0.1,0.1,0.1,0.1,0.1,0.2s0.1,0,0.1-0.1c-0.1,0.1,0,0.1,0.1,0.2l0.2,0.8c0.1,0.3,0.1,0.6,0.1,1c0,0.5,0.1-0.3,0,0c0,0.5,0.1-0.3,0,0
	c0,0.5,0,0.8-0.5,1s-0.8-0.1-1.1,0.1c-0.2,0.1-0.3,0.2-0.5,0.3s-0.3,0.2-0.5,0.3c-0.3,0.2-0.6,0.5-0.8,0.9
	C34.3,34.1,34.2,34.1,34.2,34.1L34.2,34.1z"/>
<path class="st1" d="M69,54c0.2,0,0.3,0,0.5-0.1c0.1-0.1,0.3-0.1,0.4-0.3c-0.3-0.1-0.6,0.2-0.7,0.1C69,53.8,69,53.9,69,54l1.2,1.6
	c0,0.2-0.3,0.3-0.5,0.3c0,0-3.9,2.4-3.8,2.2s0.8-0.3,0.4-0.4h-0.1c0,0.1,0,0.1-0.1,0.1c-0.1-0.2-0.3-0.1-0.5-0.1
	c0.1,0.1,0.1,0.3,0,0.3s-0.1-0.1-0.1-0.1c0,0.1,0.1,0.2,0.1,0.3c-0.2-0.1-0.4,0-0.5,0.2c0,0.1,0.2,0,0.3-0.1
	c0.1-0.1,0.5-0.3,0.5-0.3s0,0.1-0.1,0.1c-0.4,0.2-0.9,0.5-1.3,0.6C64.4,58.9,64,59.1,64,59c0.2-0.1,0.5-0.2,0.7-0.3
	c0.1-0.1,0.5-0.1,0.3-0.3c-0.4-0.3-0.7,0.6-0.8,0.1c-0.1,0.2-0.3,0-0.2,0.3c-0.2-0.1-0.4,0.1-0.6-0.1c-0.1,0.4-0.1,0.5-0.5,0.6
	c-0.1-0.2-0.1-0.3-0.3-0.3l-0.1,0.2h-0.3c-0.3,0.1-0.3,0.3-0.6,0.3c-0.2,0.1-0.5,0-0.6-0.1c0.5,0.4-0.5,0.3-0.5,0.1
	c-0.3,0.2-0.5,0.4-0.7,0.6c-0.3,0.1-0.6,0.1-0.9,0.2c-0.2-0.2-0.5-0.2-0.8-0.1c0,0.1-0.1,0.2-0.1,0.3c-0.1,0.1-0.4,0.1-0.5,0.4
	c0-0.1-0.1-0.1-0.2-0.1c-0.1,0,0-0.1-0.1-0.1S57,60.8,57,60.9c0.5,0.2-0.1,0.2-0.2,0.3c0.4,0,1.2-0.2,1.1-0.1
	c-0.5,0.2-0.9,0.2-1.4,0.1c-0.5,0.1-0.9,0.2-1.3,0.5c-0.1-0.3,1.2-0.3,1.2-0.8c0.1-0.7-1-0.1-1.2-0.1c0.1,0,0.1,0.1,0.2,0.1
	c0,0.1,0,0.1,0,0.1c0.1,0,0.2,0.1,0.2,0.2c0,0,0,0,0,0.1c-0.3,0.1-0.2-0.3-0.4-0.3c0.1,0.2,0.1,0.3-0.1,0.4h0.1v0.1
	c-0.2,0-0.5,0.1-0.7,0.1c0.3-0.3,0-0.2-0.1-0.4s0.1-0.4,0.2-0.6c-0.3-0.1,0.2-0.5,0.3-0.6c0.1-0.2,0.3-0.9,0.6-0.6
	c0.1,0,0.2,0,0.3,0.1c-0.2-0.3,0.4-0.1,0.5-0.2c0.1,0.1,0.1,0.2,0.2,0.3c0.1-0.3-0.1-0.4-0.1-0.6c0.2,0.1,0.3,0.1,0.3,0.3
	c0.3-0.4,0-0.1-0.1-0.3s-0.1-0.3,0.1-0.3c0.4-0.1,0.3,0.5,0.5,0.5c-0.1-0.1-0.2-0.4-0.1-0.5c0.1-0.2,0.3-0.1,0.5-0.3
	c0.1-0.1,0.3-0.5,0.5-0.5c0.1,0,0.2,0.1,0.2,0.2c0,0.1,0,0.1-0.1,0.2V58c-0.5,0.2,0.2,0.7,0.1,0.3c0.1-0.1,0.4,0.2,0.3-0.1
	c-0.1-0.3-0.3-0.2-0.1-0.5c0.1,0.1,0.7,0.3,0.3,0.4c0.1,0.1,0.1,0.1,0.2,0.1c0-0.1,0.1-0.1,0-0.2c0.1-0.1,0.2-0.1,0.3,0
	c0.1-0.1,0.1-0.1,0.1,0.1c0.1-0.1,0-0.3-0.1-0.4c0,0-0.1,0.2-0.2,0.1c-0.1-0.1,0-0.3,0-0.3c0.3,0.1,0.3,0.3,0.5,0.4
	c0.2,0.1,0.8,0.1,0.7,0.3c0.1,0,0.2,0,0.3,0.1c0-0.1-0.1-0.2-0.2-0.3c0.1-0.1,0.3-0.2,0.5-0.3c-0.3,0.2-0.1,0.5,0.1,0.1
	c0.2-0.4,0.1-0.4-0.1-0.7c0.2,0,0.3-0.1,0.4,0.1H61v0.1c0.1-0.1,0.2,0,0.2,0.1c0.1-0.1,0.1-0.1,0.3-0.1c-0.3-0.4,0.2-0.2,0.4-0.1
	c0-0.1-0.1-0.1-0.1-0.2h1c0.8,0.1,1.5,0,2.3-0.2c0.3-0.2,0.6-0.6,1-0.8c0.1-0.4,0.1-0.3,0.4-0.4c0.2-0.1,0.3-0.3,0.4-0.5
	c0.1-0.1,0.2-0.2,0.4-0.2h0.5c-0.1,0.2-0.1,0.4-0.3,0.5c0.1-0.1,0.1-0.2,0.2-0.3c-0.3,0.1-0.5,0.1-0.7,0.4c-0.2,0.1-0.3,0.3-0.5,0.5
	c-0.1,0.1,0.1,0.1,0.1,0.3c0,0.1,0.1,0.1-0.1,0.2c-0.1,0.1-0.3-0.1-0.3,0.1c0,0.1,0.1,0.3,0.1,0.3c-0.1,0-0.2-0.1-0.3-0.2
	c0,0.2-0.4,0.3-0.6,0.4c-0.1,0.1-0.1,0.3-0.3,0.4c-0.1,0.1-0.3-0.1-0.2,0.2c0.3-0.2,0.6,0.1,0.9,0.1c0,0,0.4,0,0.5-0.1
	s0.1-0.3-0.1-0.3c0-0.3,0.2-0.1,0.3-0.1c0.2-0.1,0.2-0.3,0.3-0.5v-0.3c0.2,0.3,0.6,0.1,0.3-0.2c0.3-0.3,0.3,0.2,0.2,0.3
	c0.1-0.1,0.6-0.3,0.4-0.5c0.1-0.1,0.3,0,0.5,0.1c-0.1,0.1,0,0.2,0.1,0.3c0-0.1-0.1-0.4,0.1-0.5c0.1-0.1,0.2,0.3,0.1,0.3h0.1l0.3,0.3
	l0.3-0.3c0,0,0.1,0,0.1,0.1c0.1-0.1,0.1,0.1,0.1-0.1c0.3,0.1,0.2-0.1,0.3-0.2c0.1,0,0.2,0,0.3-0.1c0.1-0.1,0-0.1,0.2-0.2
	c0,0,0.1,0.1,0.2,0.1c-0.1-0.1-0.1-0.1-0.1-0.2c0.1-0.1,0.2-0.1,0.3-0.1h-1.5l0.1-0.1l-0.4-0.2c0,0.1,0.1,0.1,0.1,0.1
	c0,0.1-0.1,0.1-0.1,0.1c0.1,0,0.2,0.1,0.4,0.1c0,0.1-0.1,0.3-0.1,0.4c0.2-0.1,0.1-0.2,0.1-0.4L67.9,55c-0.1-0.2,0-0.3,0.2-0.3
	c-0.1,0.1-0.2,0.2-0.2,0.3l-0.5,1.3c0-0.5-0.2-0.2-0.4-0.5c0.1,0.1,0.2,0.1,0.3,0c-0.1-0.1-0.3-0.2-0.5-0.3c0.1,0-0.2,0.3-0.1,0.2
	c-0.1,0.1,0,0.1-0.1,0.1c0,0.1,0.1,0.3,0.3,0.3c0.1-0.1,0.5-0.1,0.5,0.2l-1.3,0.6L66,56.8c0.2-0.1,0.1,0.1,0.1,0.1l-5.6,3.6
	c-0.2,0.1-0.5,0-0.5,0.2c0.3,0.1,0.6-0.1,0.9-0.2c0.3-0.1,0.7-0.3,1-0.4c0.6-0.3,1.4-0.7,2-1c-0.3-0.1-0.5,0.2-0.8,0.3
	s-0.6,0.3-0.9,0.4c-0.6,0.3-1.1,0.5-1.7,0.7L59,60.7c0.5-0.2,0.9-0.4,1.4-0.5c0.1,0.1-0.5,0.3-0.8,0.5c-0.5,0.2-1.1,0.4-1.7,0.5
	c0.3-0.2,0.7-0.4,1-0.5l-3,0.3c0.2-0.1,0.1-0.3,0-0.4c-0.1,0.1,0,0.3,0,0.4h-1.7c0,0.3-0.4,0.6-0.6,0.8c0.1-0.1,0-0.1,0-0.1
	c-0.1,0.1-0.6,0.6-0.8,0.5s-0.1-0.1,0-0.3s0.1-0.1,0.1-0.3s0.1-0.7,0.3-0.8c0.1-0.1,0.6-0.1,0.8-0.1c0,0.1,0,0.3,0.1,0.4"/>
</svg>
