<svg xmlns="http://www.w3.org/2000/svg" width="34" height="41" viewBox="0 0 34 41">
    <path fill="#FFF" fill-rule="evenodd" d="M28.442 32.37a.556.556 0 0 0-.603-.12.57.57 0 0 0-.177.12l-1.24 1.22v-3.67a.535.535 0 0 0-.16-.383.563.563 0 0 0-.39-.163.563.563 0 0 0-.392.16.53.53 0 0 0-.157.386v3.67l-1.25-1.22a.556.556 0 0 0-.602-.12.552.552 0 0 0-.336.501c0 .142.057.279.158.381l2.179 2.138c.01 0 .12.088.18.117.01 0 .02 0 .02.01.061.02.125.03.19.03h.01c.064 0 .13-.01.19-.03.002-.004.005-.006.008-.008a.018.018 0 0 1 .012-.002.585.585 0 0 0 .16-.107.032.032 0 0 0 .02-.01l2.18-2.138a.53.53 0 0 0 .122-.588.53.53 0 0 0-.122-.173zm-.73 4.716h-3.69a.562.562 0 0 1-.387-.16.543.543 0 0 1-.163-.377c0-.144.057-.282.16-.385a.569.569 0 0 1 .39-.162h3.69c.147.002.287.06.39.162a.533.533 0 0 1-.003.762.558.558 0 0 1-.387.16zm-1.84 2.147a6.455 6.455 0 0 1-3.533-1.035 6.23 6.23 0 0 1-2.346-2.778 6.06 6.06 0 0 1-.369-3.583 6.148 6.148 0 0 1 1.732-3.179 6.408 6.408 0 0 1 3.25-1.702 6.496 6.496 0 0 1 3.67.35 6.328 6.328 0 0 1 2.853 2.282 6.091 6.091 0 0 1 1.072 3.446 6.116 6.116 0 0 1-1.852 4.379 6.422 6.422 0 0 1-4.477 1.82zm0-14.164a8.298 8.298 0 0 0-4.54 1.327 8.02 8.02 0 0 0-3.018 3.57 7.79 7.79 0 0 0-.476 4.604 7.904 7.904 0 0 0 2.225 4.086 8.22 8.22 0 0 0 4.177 2.189 8.35 8.35 0 0 0 4.717-.448 8.124 8.124 0 0 0 3.666-2.935 7.838 7.838 0 0 0 .763-7.471 7.928 7.928 0 0 0-1.76-2.583 8.161 8.161 0 0 0-2.639-1.73 8.298 8.298 0 0 0-3.115-.61zM6.868 12.505h13.736c.26 0 .51-.101.696-.282a.948.948 0 0 0 0-1.36 1 1 0 0 0-.696-.281H6.868a.996.996 0 0 0-.696.281.948.948 0 0 0 0 1.36c.184.18.434.282.696.282zm0 4.803h13.736c.26 0 .51-.102.696-.282a.948.948 0 0 0 0-1.36 1 1 0 0 0-.696-.281H6.868a.996.996 0 0 0-.696.281.948.948 0 0 0 0 1.36c.184.18.434.282.696.282zm0 4.813h13.736c.26 0 .51-.102.696-.283a.95.95 0 0 0 .289-.679.95.95 0 0 0-.29-.68 1 1 0 0 0-.695-.281H6.868a.992.992 0 0 0-.91.593.933.933 0 0 0 0 .736.975.975 0 0 0 .533.52c.12.048.247.074.377.074zm13.906 2.899a9.283 9.283 0 0 0-2.25 1.913H6.869a.998.998 0 0 1-.7-.283.953.953 0 0 1 0-1.367.998.998 0 0 1 .7-.283h13.736a.916.916 0 0 1 .17.02zM5.887 5.77H3.348l2.54-2.48v2.48zM6.868 0a1.018 1.018 0 0 0-.7.283L.29 6.053a.928.928 0 0 0-.29.683v26.923a.95.95 0 0 0 .286.68c.184.181.433.284.693.287h15.396a9.34 9.34 0 0 1-.14-1.592c0-.117 0-.224.01-.331H1.96V7.693h4.909a.992.992 0 0 0 .692-.282.94.94 0 0 0 .287-.675V1.923H25.51v21.681c.12-.01.241-.01.361-.01.54.002 1.078.048 1.61.137V.966a.968.968 0 0 0-.074-.37.97.97 0 0 0-.537-.524A1.005 1.005 0 0 0 26.492 0H6.868z"/>
</svg>
