<?xml version="1.0" encoding="utf-8"?>
<!-- Generator: Adobe Illustrator 22.1.0, SVG Export Plug-In . SVG Version: 6.00 Build 0)  -->
<svg version="1.1" id="Layer_1" xmlns="http://www.w3.org/2000/svg" xmlns:xlink="http://www.w3.org/1999/xlink" x="0px" y="0px"
	 viewBox="0 0 143 143" style="enable-background:new 0 0 143 143;" xml:space="preserve">
<style type="text/css">
	.st0{fill:#FFFFFF;stroke:#009DE2;stroke-miterlimit:10;}
	.st1{fill:#009DE2;}
	.st2{opacity:0.7;fill:#FFFFFF;}
</style>
<circle class="st0" cx="71.5" cy="71.5" r="70"/>
<circle class="st1" cx="71.5" cy="71.5" r="56.3"/>
<path class="st2" d="M51.5,68.1c0.4-0.5,1.9,1.6,2.7,1.6c0.5,0-0.6-1.1-1.1-2.6c-0.3-1.1,0.2-2.9-0.1-3.3s-0.8,2.1-1.2,2.8
	s-2.3-0.9-2.7-2.3c-0.4-1.2-0.7-2.7-1.9-3.4c-2.3-1.3-2.9-4.3-2.8-6.7c0-2.4-0.9-4.7-2.5-6.4c-1.2-1.3-1.3-1.9-0.6-3.4
	c1.4-2.9,3-6.1,1.6-9.3c-0.1-0.4-0.1-0.8-0.1-1.1c0-0.2,0.1-0.3,0.3-0.3l0,0c8,0.3,17.4,0.8,25.8,1.2c0,0.8-0.4,15-0.6,21.5
	c-0.1,1.2,0.4,2.3,1.3,3c10.2,9.1,20.9,19.2,30.9,28.4c0.7,0.8,1.3,1.8,1.7,2.8c0.9,1.5,2,2.1,2.5,3.6c-0.5,1.6-2,3.1-1.8,4.5
	c0.1,0.9-0.7,2.1-0.7,3s0.2,1.8,0.6,2.5c1,1.7,0.9,2.2-1,2.4c-4.7,0.6-11.4,1.3-16.1,1.9c-1.2,0.2-0.2-2-2.3-2.9
	c-0.9-4-2.2-5.4-5.6-6.7c-1.3-1.4-3-2.3-4.9-2.6c-0.3-0.1-1.4-0.4-1.5-0.6c-1.2-2-2.5-1.9-4.5-1.9h-0.3c-3.2-0.2-3.8-0.7-3.9-3.8
	c-0.8-2.2-1.8-5.1-3.3-5.8c-1.5-2.3-2.6-3.4-4.3-5.6c-0.6-0.8-0.8-1.6,0.4-2.3c0.5-0.5,0.7-1.2,0.5-1.9c-0.3-0.6-1.2-0.9-1.9-1.2
	s-2.4-0.8-2-2.5C52.2,69.9,50.8,69.2,51.5,68.1z"/>
</svg>
