<?xml version="1.0" encoding="utf-8"?>
<!-- Generator: Adobe Illustrator 22.1.0, SVG Export Plug-In . SVG Version: 6.00 Build 0)  -->
<svg version="1.1" id="Layer_1" xmlns="http://www.w3.org/2000/svg" xmlns:xlink="http://www.w3.org/1999/xlink" x="0px" y="0px"
	 viewBox="0 0 143 143" style="enable-background:new 0 0 143 143;" xml:space="preserve">
<style type="text/css">
	.st0{fill:#FFFFFF;stroke:#0BC1B6;stroke-miterlimit:10;}
	.st1{fill:#0BC1B6;}
	.st2{opacity:0.7;fill:#FFFFFF;}
</style>
<circle class="st0" cx="71.5" cy="71.5" r="70"/>
<circle class="st1" cx="71.6" cy="71.5" r="56.3"/>
<path class="st2" d="M110.9,85.3c0.6-3.5-7.5-14.8-7.5-14.8c-2.5-4.7-0.8-5.5-0.8-5.5c-1-1.4-3.2-3.5-3.2-3.5
	c-3-1.7-7.6-13.6-7.6-13.6c-1.1-2.8-1.6-5.1-1.8-6.9h-5.1c-0.3,0-0.5-0.1-0.7-0.1c-0.3,0-0.4,0-0.5,0.1c0,0.2,0.4,0.8,0.9,1.3
	l0.2,0.2l-0.4,3.6h-3v-2l-24.3,1.2L55,43.1l-23.3,2.1V46l2,1.4l0.2,6.1c0.7-0.2,1.2-0.3,1.2-0.3c4.7-1.9,10.7-1.4,10.7-1.4
	c1.8,0,5.8,2.1,5.8,2.1c5.8,2.2,4,4.4,4,4.4c5.4-0.3,7.3-3.7,7.3-3.7c1-2.9,4.2-2.6,4.2-2.6c0,0.7,2.9,1.1,2.9,1.1
	c1.7,2.2,3.3,2.5,3.3,2.5c0.6,1.9,1.9,2.3,1.9,2.3c1,0.1,1,2.3,1,2.3c0.6-1,3.5,0.3,3.5,0.3c0.7,2.1,1.5,1.9,1.5,1.9
	c1.9,1.7,0.1,7.3,0.1,7.3c-0.7,4,2.1,6.5,2.1,6.5c1-1.4-0.6-2.5-0.6-3.2s3.6,1,3.6,1c0.8,0.7-3,4.2-3,4.2s0,0,0,0.6s5.4,6.4,5.4,6.4
	c3.3-5.7,2.1,2.6,2.1,2.6c2.9,1.1,2.6,3.6,2.6,3.6c2.6,4.2,3.2,2.2,3.2,2.2c2.2-0.8,4.8,4.4,4.8,4.4c-0.3,3.6,1.7,3.5,1.7,3.5
	c0.3-1.7,2.3-0.8,2.3-0.8c2.6-0.6,4.3-3,4.3-3c-0.8-3.3,1.4-4.7,1.4-4.7C110.3,91.9,110.9,85.3,110.9,85.3z"/>
</svg>
