<svg id="Layer_1" data-name="Layer 1" xmlns="http://www.w3.org/2000/svg" width="143" height="143" viewBox="0 0 143 143"><title>icons-large-icon-large-georgia-statewide-efficacy</title><circle cx="71.5" cy="71.5" r="70" fill="#fff" stroke="#8d8de2" stroke-miterlimit="10"/><circle cx="71.5" cy="71.5" r="56.25" fill="#8d8de2"/><path d="M106.52,76.48l-.27-.8a1.65,1.65,0,0,0-.92-1,1.69,1.69,0,0,0-1.36,0l-.36.17-.64-.35-1.12-3.2a1.66,1.66,0,0,0-.45-.68L100,69.38a1.67,1.67,0,0,0-.71-.37l-1-.25-.84-2.54-.06-.15-1.8-4a1.7,1.7,0,0,0-.85-.84l-2.48-1.09-1-.88-.8-1.54a1.6,1.6,0,0,0-.36-.46l-1.33-1.2a1,1,0,0,0-.3-.21l-1.23-.7-1.33-1.73a1.72,1.72,0,0,0-.33-.33l-2-1.47a1.47,1.47,0,0,0-.39-.21l-2.37-.9-.1-.35a1.76,1.76,0,0,0-.31-.59l-1.36-1.65-.3-.81a1.66,1.66,0,0,0-.18-.35l-2.13-3.13a1.73,1.73,0,0,0-1.42-.72L73.42,43l-2.23-1.4L70.71,41l-.08-.41.15-.36.82-.33a1.66,1.66,0,0,0,.93-2.1l-.33-.93a1.67,1.67,0,0,0-1.85-1.08l-4.09.72-12.4,1.34-9,1.06-2.2.2a1.65,1.65,0,0,0-1.5,1.58l-.07,1.53a1.15,1.15,0,0,0,0,.32l.53,3.53a1.66,1.66,0,0,0,.12.42L44,51.69l2.5,10.51a.84.84,0,0,0,.05.17l1.09,3.1,1,4.56a1,1,0,0,0,0,.14l1.26,4.13a1.71,1.71,0,0,0,.29.55l1.58,2L52,78.48a1.63,1.63,0,0,0,1.07,1.35l.27.1,0,.26-1,2.86a2.46,2.46,0,0,0-.07.29l-.53,3.26a1.63,1.63,0,0,0,.07.82l1,2.79L53,93.26l-.45,1.11a1.65,1.65,0,0,0,.37,1.8l.33.33a1.54,1.54,0,0,0,.36.27l.43.25.37,1.5a1.28,1.28,0,0,0,.18.44l1.66,2.86a1.36,1.36,0,0,0,.36.43l.93.8a1.64,1.64,0,0,0,1,.4l5.13.2h.16l21.52-1.27h.12l3.43-.45h1.8l0,.45A1.65,1.65,0,0,0,92,103.86l1.46.4a1.61,1.61,0,0,0,.44,0,1.65,1.65,0,0,0,1.65-1.53l.2-2.59a1.69,1.69,0,0,0-.08-.67L95,97.67l2.56.31,3.4.2h.12a1.67,1.67,0,0,0,1.66-1.66,1.85,1.85,0,0,0-.07-.48l-.47-3.64,1.45-6.28,1-2.7a1.61,1.61,0,0,0,.07-.87l-.22-1.16,1.92-3.61A1.71,1.71,0,0,0,106.52,76.48Z" fill="#fff" opacity="0.75"/></svg>