<svg id="Layer_1" data-name="Layer 1" xmlns="http://www.w3.org/2000/svg" width="143" height="143" viewBox="0 0 143 143"><title>icons-large-icon-large-hawaii-statewide-efficacy</title><circle cx="71.5" cy="71.5" r="70" fill="#fff" stroke="#0bc1b6" stroke-miterlimit="10"/><circle cx="71.5" cy="71.5" r="56.25" fill="#0bc1b6"/><path d="M45.73,50.22a1.94,1.94,0,0,0-1.67-1.58l-2.81-.33a1.86,1.86,0,0,0-1,.16l-2.67,1.2a1.91,1.91,0,0,0-1.07,1.25l-.67,2.47a2.22,2.22,0,0,0-.06.51,1.52,1.52,0,0,0-.09-.28l-.2-.54a1.93,1.93,0,0,0-2-1.23l-1.54.2a1.92,1.92,0,0,0-1.45,1l-1.27,2.41a2,2,0,0,0,.05,1.89,1.93,1.93,0,0,0,1.65.93h1.6a1.91,1.91,0,0,0,1.59-.85l1.41-2.07a1.92,1.92,0,0,0,.33-1.09,1.9,1.9,0,0,0,1.13,1.38L41,57.4a1.9,1.9,0,0,0,1,.13l1.4-.2A1.92,1.92,0,0,0,45,56.16L46,53.56a2.05,2.05,0,0,0,.11-1.07Z" fill="#fff" opacity="0.75"/><path d="M68.15,61.81l-1.49-.92L65.59,58.8l-1.4-2.4a1.93,1.93,0,0,0-2.52-.76L57.8,57.58a1.94,1.94,0,0,0-.95,1.06l-.46,1.27a1.9,1.9,0,0,0,.2,1.73l2.47,3.67a1.92,1.92,0,0,0,1.84.84l1.6-.2.13,0,.11.1A2,2,0,0,0,64,66.5h.1l2.48-.14a1.91,1.91,0,0,0,1.49-.85l.67-1A1.94,1.94,0,0,0,69,63,1.91,1.91,0,0,0,68.15,61.81Z" fill="#fff" opacity="0.75"/><path d="M107.71,88.27l-2.18-1.42-1-2.4a1.87,1.87,0,0,0-.17-.31l-1.07-1.6a1.79,1.79,0,0,0-.59-.57l-2.27-1.4-.18-.1L92.86,77a1.92,1.92,0,0,0-2,.25l-1.07.87a1.9,1.9,0,0,0-.71,1.59L89.12,81a1.89,1.89,0,0,0,.48,1.18l.14.16-.65,1-1,.45a1.93,1.93,0,0,0-1.15,1.91l.13,1.73a1.93,1.93,0,0,0,.67,1.32l1,.82.77,2.75-.28,1.11a2.43,2.43,0,0,0,0,.6l.2,3a1.93,1.93,0,0,0,.79,1.43l2.41,1.74a2,2,0,0,0,.91.35l1.2.13h.22a1.91,1.91,0,0,0,1.5-.72l1.57-2,1.37-1.82.92-.54.13,0a2,2,0,0,0,1.36,0l2.81-1a2,2,0,0,0,.57-.33l2.6-2.13a2,2,0,0,0,.66-1l.2-.87A1.93,1.93,0,0,0,107.71,88.27Z" fill="#fff" opacity="0.75"/><path d="M88.89,75.58l2.41-1.21a1.91,1.91,0,0,0,1.06-1.72V71.39a1.93,1.93,0,0,0-.92-1.64L88.51,68a1.83,1.83,0,0,0-.54-.23L85.24,67l-2.94-1.5a1.37,1.37,0,0,0-.31-.13,1.88,1.88,0,0,0-.27-.55,2,2,0,0,0-1.38-.8l-4.07-.4a2,2,0,0,0-1,.19l-2.29-.49a1.94,1.94,0,0,0-2,.8l-.86,1.27a1.89,1.89,0,0,0-.23,1.71,1.94,1.94,0,0,0,1.24,1.21l2.19.69V70a2.07,2.07,0,0,0,.19.85l1.27,2.6a1.92,1.92,0,0,0,2.37,1l2.07-.73a1.93,1.93,0,0,0,1-.88L81.7,74.7a2,2,0,0,0,.5.45l1.61,1a1.92,1.92,0,0,0,1,.29,2.58,2.58,0,0,0,.39,0l3.2-.67A1.74,1.74,0,0,0,88.89,75.58Z" fill="#fff" opacity="0.75"/></svg>