<?xml version="1.0" encoding="utf-8"?>
<!-- Generator: Adobe Illustrator 22.1.0, SVG Export Plug-In . SVG Version: 6.00 Build 0)  -->
<svg version="1.1" id="Layer_1" xmlns="http://www.w3.org/2000/svg" xmlns:xlink="http://www.w3.org/1999/xlink" x="0px" y="0px"
	 viewBox="0 0 143 143" style="enable-background:new 0 0 143 143;" xml:space="preserve">
<style type="text/css">
	.st0{fill:#FFFFFF;stroke:#0070D6;stroke-miterlimit:10;}
	.st1{fill:#0070D6;}
	.st2{opacity:0.7;fill:#FFFFFF;enable-background:new    ;}
</style>
<circle class="st0" cx="71.5" cy="71.5" r="70"/>
<circle class="st1" cx="71.5" cy="71.5" r="56.3"/>
<path class="st2" d="M111.9,72l-0.4-1.3c-0.1-0.3-0.3-0.6-0.5-0.8l-2.3-2l-0.2-0.6c-0.1-0.2-0.2-0.4-0.3-0.6l-0.6-0.8
	c-0.2-0.2-0.4-0.4-0.7-0.5l-0.7-0.3v-0.6c0-0.2-0.1-0.5-0.2-0.7l-0.6-1.3c-0.3-0.6-0.8-0.9-1.4-1l-1.4-0.2l-1.5-0.7l-1.3-2.1
	l-0.1-1.7l1.1-1.6c0.3-0.5,0.4-1.2,0.2-1.7l-0.2-0.5c-0.1-0.2-0.2-0.4-0.4-0.6l-1.1-1.1l-0.5-1.8c-0.2-0.8-1-1.4-1.8-1.3l-14.8,0.5
	l-42.8,0.4c-0.1,0-0.2,0-0.3,0l-1.3,0.2c-0.7,0.1-1.2,0.6-1.4,1.3l-0.5,1.7c-0.1,0.2-0.1,0.5-0.1,0.7l0.2,1.7
	c0.1,0.5,0.3,0.9,0.7,1.2l1,0.8l-0.6,3l-1.1,2.5c-0.2,0.5-0.2,1,0,1.5l0.9,2c0.1,0.1,0.1,0.2,0.2,0.3l0.7,1l0.7,3.5
	c0,0.1,0,0.2,0.1,0.2l1.9,5.4l0.7,3.1c0,0.2,0.1,0.4,0.2,0.5l1.3,2.3l0.4,3.3c0,0.1,0,0.2,0.1,0.3l0.9,2.7l0.3,4.5
	c0,0.2,0,0.4,0.1,0.5l1.1,3c0.3,0.7,1,1.2,1.7,1.2l34.6-0.8l7.1-0.4l4.6-0.4l0.4,0.8c0.1,0.1,0.1,0.2,0.2,0.4l1.6,1.9
	c0.3,0.4,0.8,0.6,1.4,0.6c0.4,0,0.8-0.1,1.1-0.4l0.9-0.7c0.6-0.4,0.8-1.2,0.7-1.9L99.5,96l0.1-0.2l0.5-0.4l0.6-0.2
	c0.8-0.2,1.3-0.9,1.3-1.8v-1.3l0.2-0.4l0.9-0.7c0.4-0.3,0.7-0.8,0.7-1.4l0.1-2.4c0-0.6-0.2-1.1-0.6-1.5l-0.9-0.8l-0.1-0.3l0.6-1.8
	l3.1-0.8l1.1-0.3c0.2-0.1,0.4-0.2,0.6-0.3l1.5-1.1c0.3-0.2,0.6-0.6,0.7-1l0.4-1.5l1.1-2.4c0-0.1,0.1-0.2,0.1-0.3L112,73
	C112.1,72.7,112.1,72.3,111.9,72z"/>
</svg>
