<?xml version="1.0" encoding="utf-8"?>
<!-- Generator: Adobe Illustrator 22.1.0, SVG Export Plug-In . SVG Version: 6.00 Build 0)  -->
<svg version="1.1" id="Layer_1" xmlns="http://www.w3.org/2000/svg" xmlns:xlink="http://www.w3.org/1999/xlink" x="0px" y="0px"
	 viewBox="0 0 143 143" style="enable-background:new 0 0 143 143;" xml:space="preserve">
<style type="text/css">
	.st0{fill:#FFFFFF;stroke:#0BC1B6;stroke-miterlimit:10;}
	.st1{fill:#0BC1B6;}
	.st2{opacity:0.7;fill:#FFFFFF;}
</style>
<g transform="translate(0,-952.36216)">
	<circle class="st0" cx="71.5" cy="1023.9" r="70"/>

		<ellipse transform="matrix(0.9995 -3.028892e-02 3.028892e-02 0.9995 -30.9805 2.6355)" class="st1" cx="71.5" cy="1023.9" rx="56.3" ry="56.3"/>
	<path class="st2" d="M83.5,985L83.5,985C83.5,985,83.4,985,83.5,985l-24,2.3l-6.7-0.6c-0.4,0-0.7,0.3-0.8,0.6c0,0.1,0,0.3,0.1,0.4
		l1.7,3.6c0,0,0,0.1,0.1,0.1l3.2,4.4l-1.7,5.5l-7,3.7c-0.3,0.2-0.5,0.6-0.3,0.9l2,4.1l-3,5.8l0,0l-3,6.2c-0.1,0.2-0.1,0.4,0,0.6
		l5.3,11.5c0.1,0.1,0.2,0.3,0.3,0.3l4.9,2.6v3.8c0,0.3,0.2,0.6,0.5,0.7l6.1,1.9l-2.3,7.8c-0.1,0.2,0,0.5,0.2,0.7l5.7,6.2
		c0.1,0.1,0.3,0.2,0.5,0.2h2.5l2.3,4.3v3.4c0,0.2,0.1,0.3,0.2,0.5l3,3.4c0.3,0.3,0.7,0.3,1,0.1c0,0,0,0,0.1-0.1l3.1-3.5l5.8,0.8
		c0.4,0.1,0.7-0.2,0.8-0.6c0-0.2,0-0.3-0.1-0.5l-1.5-2.5l3.4-1.8c0.2-0.1,0.4-0.4,0.4-0.6v-3.1l1.1-1.3c0.1-0.1,0.2-0.3,0.2-0.4
		l0.4-6.2l4.1-5.6c0.1-0.1,0.1-0.2,0.1-0.3l0.6-3.6c0-0.2,0-0.3-0.1-0.5l-2.4-4l0.6-5.7v-0.1L88,996.3c0-0.1,0-0.2-0.1-0.3l-3.3-4.9
		l-0.4-5.3C84.2,985.3,83.8,985,83.5,985z"/>
</g>
</svg>
