<?xml version="1.0" encoding="utf-8"?>
<!-- Generator: Adobe Illustrator 22.1.0, SVG Export Plug-In . SVG Version: 6.00 Build 0)  -->
<svg version="1.1" id="Layer_1" xmlns="http://www.w3.org/2000/svg" xmlns:xlink="http://www.w3.org/1999/xlink" x="0px" y="0px"
	 viewBox="0 0 143 143" style="enable-background:new 0 0 143 143;" xml:space="preserve">
<style type="text/css">
	.st0{fill:#FFFFFF;stroke:#2CB764;stroke-miterlimit:10;}
	.st1{fill:#00933B;}
	.st2{opacity:0.75;fill:#FFFFFF;}
</style>
<g>
	<circle class="st0" cx="71.5" cy="71.5" r="70"/>
	<circle class="st1" cx="71.5" cy="71.5" r="56.3"/>
	<path class="st2" d="M90.9,86.1c0-0.1-0.1-0.1,0-0.2c0,0,0-0.1,0.1-0.1l0.7-0.6c0.8-0.7,1.4-1.9,1.4-3l-1-46.7
		c0-1.3-1.1-2.4-2.4-2.4l-24.1,0.4c-0.9,0-2.1,0.3-2.9,0.7l-3.9,1.8c-0.1,0.1-0.4,0.1-0.8,0.1c-0.3,0-0.5,0-0.7-0.1l-2.4-1
		c-0.8-0.3-1.6-0.2-2.1,0.4c-0.4,0.4-0.6,0.9-0.6,1.5l0.6,52.5c0,0.5-0.3,1.3-0.5,1.7l-5.3,7.6c-0.5,0.7-1,1.9-1.2,2.8l-1,4.9
		c-0.1,0.6,0,1.2,0.4,1.6c0.3,0.4,0.8,0.6,1.3,0.6c0.2,0,0.5,0,0.7-0.1l6.2-2.1c0.4-0.1,1.3-0.1,1.6,0.1l2.6,1.2
		c0.4,0.2,0.8,0.2,1.2,0.2c0.8,0,1.6-0.3,2.2-0.8l1.4-1.3c0.2-0.2,0.7-0.4,1.1-0.4c0.1,0,0.1,0,0.2,0l2.1,0.4c0.1,0,0.3,0,0.4,0
		c1.1,0,2.1-0.7,2.5-1.7l0.6-1.5c0.1-0.1,0.2-0.2,0.4-0.2l4.5,1.5c0.3,0.1,0.5,0.1,0.8,0.1c1,0,1.9-0.5,2.4-1.4l0.7-1.3
		c0.3-0.5,0.9-1.4,1.4-1.8l3.5-3.4c0.8-0.8,1.2-2.1,1-3.2l-0.2-0.8l0.1,0c0.5,0.1,1.1,0.2,1.5,0.2c0.6,0,1.2-0.1,1.7-0.2l4.3-1.3
		c0.7-0.2,1.2-0.7,1.4-1.3c0.2-0.6,0-1.3-0.4-1.8L90.9,86.1z"/>
</g>
</svg>
