<svg id="Layer_1" data-name="Layer 1" xmlns="http://www.w3.org/2000/svg" width="143" height="143" viewBox="0 0 143 143"><title>icons-large-icon-ixl-for-rti-leads-to-school-turnaround</title><circle cx="71.5" cy="71.5" r="70" fill="#fff" stroke="#2cb764" stroke-miterlimit="10"/><circle cx="71.5" cy="71.5" r="56.25" fill="#00933b"/><path d="M115.84,65.38l-4.62-3.51L108,58.19V54.11l-2.24-1.41-2.46-2.52-1.24.52-1.43,1.83-1.4.56L98,52.15H96.61l-1.9.54-2.6-.94L88.59,51l-.94-1.84-1.33-1H82.91l-1.2-.69L81.56,50l.58,1.72L81.32,53l-2,1.2-3.16.55-.53,2.58-2.39,3.46-1.65,1.9-.6,3-1.47.83-1.67-.42-1.44-1h-.89l-1,1.07v1.68L62,68.38H59.76L58.5,70H56.91L54,69.4,51.34,70l-2.47,1.19L47.4,72.35l-.67,3.52-2.8,2.29-.41,1.32.85,1.16v1.27l-1.15.77-1-.62-3.53-.59L37,82.24l-1,2,1,2.38-.6,2.62-1.83,1L33.35,92l.77-.58L45.9,90.28,49,89.35l.75-2.06,10.85-.65,24.68-3.33,20.85-4.26-.65-1,.43-1.43,1.81-.36.31-1.07,1.49-2.83,2.06-1.46,4.68-5Z" fill="#fff" opacity="0.75"/></svg>