<?xml version="1.0" encoding="utf-8"?>
<!-- Generator: Adobe Illustrator 22.1.0, SVG Export Plug-In . SVG Version: 6.00 Build 0)  -->
<svg version="1.1" id="Layer_1" xmlns="http://www.w3.org/2000/svg" xmlns:xlink="http://www.w3.org/1999/xlink" x="0px" y="0px"
	 viewBox="0 0 143 143" style="enable-background:new 0 0 143 143;" xml:space="preserve">
<style type="text/css">
	.st0{fill:#FFFFFF;stroke:#8D8DE2;stroke-miterlimit:10;}
	.st1{fill:#8D8DE2;}
	.st2{opacity:0.75;fill:#FFFFFF;}
</style>
<circle class="st0" cx="71.5" cy="71.5" r="70"/>
<circle class="st1" cx="71.5" cy="71.5" r="56.3"/>
<path class="st2" d="M100.5,51c-0.5,0-1.4-0.2-2-0.2c-0.6,0.1-1,0.5-1.2,0.3c0.1,0.1,0.3-1.2,0-0.5c-0.6-0.2-0.3-1.2-1-1.3
	c-1.3,0.5-2.3,1.3-3.2,2.2c-1,0.3-1.4,0.2-2.3,0.3c0.2-0.8-0.8-0.4-1.2-0.7c0-0.4,0-0.8-0.2-1c-1.1,0.2-1.2-0.6-2.2-0.5
	c-0.2-0.5-0.3-1-0.7-1.3c-0.8,0-1.6-0.1-2.2,0.2c-0.3,0.6,0.2,0.9-0.2,1.3c-0.9-0.2-0.9-1.4-1.2-2.3c-0.6-0.5-1.5,0.4-1.8-0.3
	c0.2-0.3,0.9-0.1,0.7-0.8c-0.9,0-1.6-0.6-2.2-0.8c-0.1-0.1-0.4,0.1-0.5,0c0,0,0-0.3,0-0.3c-0.2-0.2-1.4,0-1.8,0
	c-0.5,0-0.9-0.2-1.2-0.2c-0.3,0-1.1,0.4-1.3,0.7c-0.2,0.2-0.1,0.5-0.3,0.7c-0.8,0-1.7,0.4-2.3,0.2c0.1-0.6-0.2-0.9-0.3-1.3
	c-1.2,0.1-1.9-0.3-3.2-0.2c-0.3-0.2-0.2-0.9-0.8-0.8c-1.4,0.3-2.6,0-3-1c0.1-0.4,0.2-0.8,0.2-1.3c-0.4-1.4-1.1-3.6-1-5
	c-0.3-0.2-0.6-0.2-0.8-0.3c-0.1,0-0.1-0.3-0.2-0.3c-0.6-0.2-1.2,0.1-2-0.2c-0.1,1.5,0.2,3.4-0.2,4.7c-5.6-0.2-11.4-0.2-17-0.5
	c0.3,1.5,0.7,2.9,1.2,4.3c-1.1,1.5,0,4.6-0.7,6.3c0.6,0.7,0.5,1.5,0.7,2.5c0,0,0.3,0.3,0.3,0.3c0.1,0.3-0.1,0.6,0,0.8
	c0.1,0.3,0.4,0.7,0.5,1c0.4,1.2,0.7,2.1,0.7,3.5c-0.1,1.6,0.2,4.5,0,6c0,0.6,0.5,0.7,0.5,1.3c-0.6,2.3-0.1,5.4,1.2,7.2
	c0.2,2.2,0.4,3.9,0,6.2c-0.4,0-0.3,0.4-0.5,0.7c-0.6,0.6-1.6,0.7-1.8,1.7c-0.1,0.7,0.5,0.8,0.7,1.2c0.1,0.5,0.3,0.9,0.5,1.3
	c0.6,0.4,1.7,0.4,2,1.2c0.4,0.7,0.1,1.5,0,2.3c-0.1,1.6,0.2,3.4,0,4.8c-0.1,0.4-0.3,0.8-0.3,1.2c-0.4,4.7,0.3,9.6,0,14.3
	c15.5,0.3,31.8,0.3,46.9-0.3c0-0.7-0.4-1.3-0.5-2c-0.1-0.8,0.3-1.7-0.2-2.3c0.2,0,0.7,0.7,0.7,0c0.3-0.7,0-1.7-0.3-2
	c-0.1-0.1-0.1-0.2-0.2-0.3c-0.1-0.1-0.3,0.1-0.3,0c-0.1-0.1,0.1-0.3,0-0.3c-0.2-0.1-0.5-0.1-0.7-0.2c-0.1,0-0.1-0.3-0.2-0.3
	c-0.6-0.4-1.4-0.6-2-0.5c-0.2,0.5,0.3,1.1,0,1.2c-0.8-0.6-1.7-1.2-2.5-1.8c0-0.6-0.4-0.8-0.3-1.5c-0.8-0.7-1.9-1.2-3.2-1.5
	c-0.4-0.2-0.2-1.1-0.8-1.2c-0.2-0.4-1-0.1-1.5-0.2c-0.5-1.1-1.7-1.5-2.5-2.3c0.6-1,0.6-2.8,0-3.8c0.4,0.1,0.4-0.3,0.5-0.7
	c-0.3-0.3-0.1-1.1-0.2-1.7c0.3-0.6,0.7-1.3,1-2c-0.4-0.5-0.8-1-1-1.7c-0.4-0.4-0.8,0.2-1.2-0.2c0-0.4,0-0.9,0-1.3
	c0.6-0.5,1-1.2,1.2-2.2c0.3-0.1,0.3-0.5,0.7-0.2c0.2-0.6,0.7-0.6,1-0.8c0.1-0.1-0.1-0.3,0.2-0.3c0,0,0.1,0.3,0.3,0.2
	c0.2-0.1,0.2-0.4,0.3-0.7c0.4,0,0.5,0.3,0.8,0c-0.1-0.5,0.2-0.7,0.5-0.8c-0.1-2.2-0.2-4.6-0.2-7c1,0.6,0.8-1.7,1.8-1
	C87.3,68,87,68,87,67.6c0.8-0.5,1.3-1.4,2.3-1.7c0.7-1.3,2.1-1.9,3-2.8c0.5-0.5,0.9-1.1,1.3-1.7c0.9-1.1,1.6-2,2.5-2.8
	c1.2-1.1,2.5-2.2,4-2.8c0.4-0.2,0.8-0.2,1.2-0.3c0.1,0,0.2-0.3,0.3-0.3c0.1-0.1,0.3,0,0.5,0c0.1,0,0.2-0.3,0.3-0.3
	c0.1-0.1,0.3,0,0.5,0c0.2-0.1,0.2-0.3,0.3-0.3c0.1-0.1,0.4,0,0.5,0c0.1,0,0.3-0.3,0.3-0.3c0.9-0.5,1.5-0.7,2.2-1.3
	c0.6-0.4,1.4-0.4,1.7-1.2c-1,0.2-2.7-0.3-3.5,0.5c0.1-0.5-0.6-0.2-0.7-0.3c-0.3-0.3-0.1-1.1-0.8-1c-0.1,0-0.2,0-0.2-0.2
	C102.2,50.6,101.4,50.9,100.5,51z"/>
</svg>
