<?xml version="1.0" encoding="utf-8"?>
<!-- Generator: Adobe Illustrator 22.1.0, SVG Export Plug-In . SVG Version: 6.00 Build 0)  -->
<svg version="1.1" id="Layer_1" xmlns="http://www.w3.org/2000/svg" xmlns:xlink="http://www.w3.org/1999/xlink" x="0px" y="0px"
	 viewBox="0 0 143 143" style="enable-background:new 0 0 143 143;" xml:space="preserve">
<style type="text/css">
	.st0{fill:#FFFFFF;stroke:#0070D6;stroke-miterlimit:10;}
	.st1{fill:#0070D6;}
	.st2{opacity:0.75;fill:#FFFFFF;enable-background:new    ;}
</style>
<circle class="st0" cx="71.5" cy="71.5" r="70"/>
<circle class="st1" cx="71.5" cy="71.5" r="56.3"/>
<path class="st2" d="M111.8,64.5l-0.2-2.3c0-0.2-0.1-0.5-0.2-0.7l-1.4-2.9c-0.2-0.5-0.6-0.8-1.1-1c0-0.1-0.1-0.1-0.1-0.2l-1.1-1.1
	l-1.7-3.1l-1-2.4c-0.4-0.9-1.3-1.4-2.2-1.2L72.9,56L53,59.1h-2.1c-1.1,0-2,0.8-2,1.9v1.6l-0.1,0.2l-0.9,0.9
	c-0.2,0.2-0.3,0.4-0.4,0.6L47,65.1c-0.2,0-0.4,0-0.6,0l-0.9,0.2c-0.5,0.1-0.9,0.4-1.2,0.8L44,66.7c-0.2-0.1-0.4-0.2-0.7-0.2
	c-0.6-0.1-1.1,0.1-1.6,0.5l-2.1,2c-0.3,0.3-0.5,0.6-0.6,1l-0.2,0.8l-1.5,0.8c-0.1,0.1-0.2,0.1-0.3,0.2l-2.1,1.7l-1.7,0.7
	c-0.1,0-0.2,0.1-0.4,0.2l-2,1.3C30.3,76,30,76.5,29.9,77l-0.1,0.7h-0.2c-0.3,0.1-0.5,0.2-0.7,0.3L28,78.8c-0.5,0.4-0.8,0.9-0.8,1.5
	l-0.1,2.1c0,0.6,0.2,1.1,0.6,1.5s1,0.6,1.5,0.5l7-0.7c0.1,0,0.1,0,0.2,0l3.4-0.6c0.1,0,0.3-0.1,0.4-0.1l3.5-1.4c0,0,0.1,0,0.1-0.1
	l4.5-2.2l3.4-0.4l7.9-0.2l0.6,0.4l0.6,1.2c0.4,0.7,1.2,1.1,2,1l8.3-1l1,0.3l6.3,3.8l5.2,4.2c0.4,0.3,0.8,0.4,1.2,0.4
	c0.2,0,0.4,0,0.6-0.1l2.5-0.7l2.3-0.2c0.9-0.1,1.6-0.7,1.7-1.6l0.2-1.2l0.9-3l1.4-2l3-2.4l2.3-1.1l0.6-0.1c0.2,0.1,0.5,0.2,0.8,0.2
	h0.7c0.7,0,1.3-0.3,1.7-0.9l1.6-2.5l0.1-0.1l1-1.9c0.1-0.1,0.1-0.2,0.1-0.3c0.4-0.1,0.8-0.3,1-0.6l0.5-0.5l1.2-1l1.5-0.7
	c0.7-0.3,1.1-1,1.2-1.7l0.1-1.8C111.8,64.7,111.8,64.6,111.8,64.5z M103.5,68.6c0,0.1,0,0.1,0,0.2l-0.3,0.1c-0.1,0-0.2,0.1-0.3,0.1
	l0.1-0.2c0.1,0,0.2-0.1,0.3-0.1L103.5,68.6z"/>
</svg>
