<?xml version="1.0" encoding="utf-8"?>
<!-- Generator: Adobe Illustrator 22.1.0, SVG Export Plug-In . SVG Version: 6.00 Build 0)  -->
<svg version="1.1" id="Layer_1" xmlns="http://www.w3.org/2000/svg" xmlns:xlink="http://www.w3.org/1999/xlink" x="0px" y="0px"
	 viewBox="0 0 143 143" style="enable-background:new 0 0 143 143;" xml:space="preserve">
<style type="text/css">
	.st0{fill:none;stroke:#0BC1B6;stroke-miterlimit:10;}
	.st1{fill:#0BC1B6;}
	.st2{opacity:0.75;fill:#FFFFFF;enable-background:new    ;}
</style>
<circle class="st0" cx="71.5" cy="71.5" r="70"/>
<circle class="st1" cx="71.6" cy="71.5" r="56.3"/>
<path class="st2" d="M94.9,40.5c-0.7,2.1-1.5,4.3-2.2,6.4c-0.9,2.2-1.7,4.5-2.6,6.7c-1.3,0.1-2.5,0.2-3.8,0.4
	c-0.6,1.8-1.1,3.7-1.7,5.5c0,0.4,0,0.7,0,1.1c0.5,0.2,0.9,0.3,1.4,0.5c0.8,0,1.6,0.1,2.3,0.1c1,0.4,2.1,0.8,3.1,1.2
	c0.2,0.3,0.5,0.6,0.7,0.9c-0.1,1.7-0.2,3.4-0.3,5.1c-0.5,2.6-1.1,5.2-1.6,7.7c-0.7,0.5-1.5,1-2.2,1.6c0.2,0.9,0.5,1.8,0.7,2.8
	c-0.5,1-1,2-1.5,3c-0.2,0.7-0.5,1.5-0.7,2.2c0.1,0.7,0.3,1.4,0.4,2.2c-1,1.5-1.9,3-2.9,4.4c-0.9,0.7-1.9,1.5-2.8,2.2
	c0,0.4,0,0.8,0,1.2c0.3,0.3,0.6,0.6,0.8,0.8c0.1,0.5,0.3,1,0.4,1.5c-0.2,0.2-0.5,0.3-0.7,0.5c0,0.2,0,0.4,0,0.6
	c-0.2,0.3-0.4,0.6-0.6,0.9c-0.4,0.4-0.9,0.8-1.3,1.2c-1.1,0.5-2.1,1.1-3.2,1.6c-0.1-0.3-0.2-0.7-0.3-1c-0.7,0.5-1.3,1-2,1.5
	c-0.2-0.2-0.4-0.5-0.6-0.7c-0.2,0-0.5,0-0.7,0c0.1,0.2,0.1,0.5,0.2,0.7c0.3,0.6,0.6,1.2,0.8,1.8c0.4-0.4,0.9-0.8,1.3-1.2
	c-0.1,0.3-0.1,0.6-0.2,0.9c-0.6,0.6-1.3,1.3-1.9,1.9c-0.6,1-1.3,1.9-1.9,2.9c0.2,0.3,0.3,0.5,0.5,0.8c-0.8,1-1.7,2-2.5,2.9
	c0,0.3,0.1,0.6,0.1,0.8c-0.8,0.7-1.7,1.5-2.5,2.2c-0.6,0.1-1.2,0.3-1.8,0.4c-0.2-0.4-0.4-0.8-0.6-1.2c0.2-0.9,0.5-1.8,0.7-2.7
	c0.5-1.2,0.9-2.3,1.4-3.5c0-0.5-0.1-1.1-0.1-1.6c-0.6-0.1-1.2-0.2-1.9-0.3c-0.7-0.1-1.3-0.2-2-0.3c0-0.5-0.1-0.9-0.1-1.4
	c-1.3,0.4-2.5,0.8-3.8,1.2c-0.1-0.6-0.3-1.3-0.4-1.9c-0.4-0.3-0.8-0.5-1.3-0.8c-0.1-0.1-0.3-0.2-0.4-0.3c-0.1-0.2-0.2-0.5-0.3-0.7
	c-0.1-0.7-0.2-1.4-0.3-2.2c-0.3,0-0.6,0-1,0c0,0.8,0,1.5,0,2.3c-0.5-0.5-1-1-1.4-1.4c-0.8-0.6-1.6-1.2-2.4-1.8
	c0.2-1,0.4-1.9,0.7-2.9c-0.6,0.3-1.3,0.5-1.9,0.8c-0.7-0.4-1.3-0.7-2-1.1c0.2-1.1,0.5-2.1,0.7-3.2c-0.1-0.4-0.2-0.8-0.3-1.2
	c-0.4-0.2-0.7-0.4-1.1-0.6c0.3-0.6,0.5-1.1,0.8-1.7c0.8-1.4,1.6-2.8,2.5-4.2c0.6-0.5,1.3-0.9,1.9-1.4c0.6-0.5,1.3-1,1.9-1.5
	c0.6,0,1.2,0,1.8,0c0.9-0.6,1.8-1.1,2.8-1.7c1.8-1.9,3.6-3.9,5.4-5.8c2.2-1.4,4.5-2.7,6.7-4.1c-2-2.1-3.9-4.1-5.9-6.2
	c-0.5-1-1.1-2-1.6-3c-0.7-0.1-1.3-0.2-2-0.2c-0.1-1.6-0.2-3.2-0.2-4.8c-0.5-0.4-0.9-0.8-1.4-1.2c-0.7,0.1-1.5,0.2-2.2,0.3
	c-0.1-2.3-0.2-4.6-0.3-6.9c1-0.6,1.9-1.1,2.9-1.7c0-0.6,0.1-1.2,0.1-1.7c0.5-0.2,0.9-0.5,1.4-0.7c-0.8-1.5-1.6-3-2.4-4.5
	c1.6-1.2,3.2-2.4,4.8-3.5c-0.2-0.5-0.4-0.9-0.5-1.4c0.9-0.7,1.9-1.4,2.8-2.1c0.2-0.9,0.4-1.9,0.5-2.8c0.4-0.7,0.9-1.4,1.3-2
	c1.2-0.8,2.5-1.5,3.7-2.3C79.8,31.5,87.4,36,94.9,40.5z"/>
</svg>
