<?xml version="1.0" encoding="utf-8"?>
<!-- Generator: Adobe Illustrator 22.1.0, SVG Export Plug-In . SVG Version: 6.00 Build 0)  -->
<svg version="1.1" id="Layer_1" xmlns="http://www.w3.org/2000/svg" xmlns:xlink="http://www.w3.org/1999/xlink" x="0px" y="0px"
	 viewBox="0 0 143 143" style="enable-background:new 0 0 143 143;" xml:space="preserve">
<style type="text/css">
	.st0{fill:#FFFFFF;stroke:#00933B;stroke-miterlimit:10;}
	.st1{fill:#00933B;}
	.st2{opacity:0.7;fill:#FFFFFF;}
</style>
<circle class="st0" cx="71.5" cy="71.5" r="70"/>
<circle class="st1" cx="71.5" cy="71.5" r="56.3"/>
<path class="st2" d="M61.9,61.8c-0.3,0-0.4,0.2-0.5,0.3c-0.2,0.1-0.5,0.2-0.7,0.3c-0.4,0.1-0.8,0.3-1.2,0.5h-0.2l0.3,0.1
	c-0.1,0.3,0.3,0.4,0.2,0.6c0-0.5-0.5-0.3-0.6-0.7l0.1-0.1h-0.5c-1.3-0.3-2.6-0.3-3.8,0c-0.6,0.1-1.2,0.7-1.7,0.4s-1-0.7-1.5-1H52
	c-0.1-0.5-0.7-0.4-1.1-0.4s-0.9-0.3-1.4-0.4c-1.1,0-2.1,0.1-3.1,0.1c-1-0.1-1.9-0.1-2.9,0c-1,0.2-2,0.4-3,0.7L38,62.9l0.1,0.2v1.1
	c0,0.2,0.1,0.3,0.1,0.5c0,0.1-0.4,0.4-0.5,0.4c0-0.1,0,0.5-0.1,0.5c0.1,0.1,0.2,0,0.2,0.1c0.3,0.2,0.8,0.1,1.2,0.2s0.5,0.4,0.5,0.6
	s-0.4,0.2-0.5,0.4s0,0.2,0.1,0.4c0.3,0.7,0.5,1.3,0.7,2c0,0-0.1,0-0.1-0.1c0.1,0.6,0.1,0.7-0.5,1.2c-0.4,0.3-0.8,0.5-1.3,0.6
	c-0.3,0.2-0.3,0.2-0.4,0.4S37.3,71.7,37,72s-0.2,0.4-0.4,0.6S36.4,73,36,73.1c-0.9,0.3-1.7,0.8-2.4,1.4c-0.1,0.1-0.2,0.2-0.3,0.4
	l-0.8,0.6c-0.5,0.4-1,0.6-1.5,1l-0.7,0.3l-0.1,3.7H76l0.2,0.2c-0.1,0.5,0.5,0.5,0.6,0.7s0.1,0.4,0.1,0.6s0.2,0.3,0.1,0.6
	c0.3,0,0.7,0.1,0.9-0.1c0.1,0.4,0.3,0.2,0.6,0.4c0.1,0.1,0.2,0.3,0.3,0.4s0.2,0,0.3,0.1S79,83.5,79,83.6c0,0.3-0.2,0.2,0,0.4
	c0.1,0,0.2,0.1,0.3,0.1c0.1,0.1,0.1,0.2,0.1,0.3c0,0.1,0.1,0.3,0.1,0.4s-0.2,0.1-0.2,0.2s0.1,0.4,0.1,0.5c0,0.3,0.1,0.5,0.2,0.7
	c-0.5,0-0.2,0.4,0,0.6s0.3,0.6,0.5,0.8s0.2,0.5,0.4,0.6s0.3-0.1,0.5,0.1c0.2,0.1,0.3,0.3,0.3,0.5c0.1-0.1,0.3-0.1,0.4,0h0.4
	c0.1,0,0.2,0.3,0.3,0.3s0.4-0.1,0.4-0.1c0,0.5,0.4,0.6,0.6,0.9V90l8.5,4.8l-0.4,1c-0.2,0.5-0.3,0.9-0.5,1.4
	c-0.1,0.3-0.7,1.2-0.6,1.6s0.6-0.6,0.6-0.7c0.1-0.3,0.3-0.5,0.5-0.7s0.4-0.1,0.5-0.2s0.2,0.1,0.4-0.1c0,0.1,0.1,0.1,0.1,0.2l0.3,0.1
	L92.6,97c0.1-0.1,0.1-0.3,0-0.5c0.2,0.1,0.6-0.4,0.6-0.7c0.1,0,0.3-0.1,0.4-0.2c0-0.6,0.3-0.2,0.4-0.4c0.1-0.1,0.2-0.3,0.2-0.4v-0.4
	l-0.8-1.3l2.5-1.7l-0.7-1l0.2-10.7H95v-0.4l2.1-9.3H97l-0.2-0.8v-0.4h0.1L96.8,59l-0.2-0.4c-0.5-0.3-0.3-0.2-0.4-0.5s0-0.4-0.3-0.4
	c-0.7-0.2-0.5,0.5-0.7,0.8L95,58c-0.1-0.3-0.1-0.5-0.1-0.8c0-0.4,0.2-0.7,0.4-1c0.1-0.3,0.4-0.5,0.3-0.8s-0.2-0.3-0.3-0.5
	s0-0.2,0-0.5s-0.1-0.6-0.2-0.8c-0.2-0.4-0.2-0.8-0.2-1.2V52c-0.1-0.2-0.3-0.3-0.4-0.5c0.1-0.4,0.1-0.8,0.3-1.2
	c0-0.3,0.1-0.6,0.2-0.8c0.2-0.4,0.6-0.5,0.7-0.9c0-0.4,0-0.7-0.2-1.1c-0.1-0.3-0.1-0.7,0.1-1c0.2-0.7,0.1-1.4-0.4-1.9
	c-0.3-0.4-0.6-0.5-0.6-1s0.2-0.7,0.2-1.1c0-0.3,0-0.6,0.1-0.9c0.2-0.5,0.1-0.5-0.1-0.9c-0.2-0.3-0.2-0.7,0-1.1
	c0.1-0.4,0.4-0.7,0-1.1l0.1-0.4l-8,0.3L85,38.5h-3.5c-0.2-0.2-0.5-0.1-0.7-0.1v-0.2c-0.3,0-0.4,0.2-0.6,0.2c-0.1,0-0.4-0.2-0.5,0.1
	h0.2c-0.1,0.2-0.5,0.2-0.6,0.3s-0.5,0.4-0.4,0.1c-0.3,0-0.3,0.3-0.4,0.4c-0.2,0.1-0.4,0.2-0.6,0.3c-0.4,0.1-0.8,0.3-1.1,0.5
	c-0.4,0.2-0.8,0.4-1.1,0.5l-0.4,0.5c-0.1,0.2-0.2,0.3-0.4,0.5c-0.7,0.7-1.6,1.2-2.2,1.9c-0.8,0.6-1.4,1.5-1.8,2.4V46H71l0.2,0.2
	l-0.5,0.7c0-0.1,0-0.1-0.1-0.2c-0.2,0.2-0.4,0.3-0.4,0.5h0.1c0,0.1-0.1,0.3-0.2,0.4v-0.2c-0.4,0.3-1.4,1-1.4,1.5
	c-0.2-0.2-0.9,0.5-1.1,0.5c-0.3,0.1-0.6,0.2-0.8,0.4c-0.3,0.2-0.5,0.5-0.8,0.5L65.2,51h0.1v0.4h0.1c-0.1,0.1-0.1,0.2-0.1,0.3
	c0.2,0,0.3,0,0.4-0.1c-0.1,0.1-0.1,0.2-0.2,0.2c0.6,0,0.2,0.4,0.3,0.7c0.1,0.2,0.3,0.1,0.3,0.3s-0.1,0.3-0.2,0.5
	c0.6-0.1,0.5-0.6,0.8-0.9c-0.2-0.1-0.7,0.2-0.7,0.2c-0.1-0.2,0.2-0.4,0.1-0.5c0.2-0.1,0.4-0.3,0.6-0.4c-0.3,0.5,0.4,0.2,0.6,0.1
	c0,0,0,0.1-0.1,0.1h0.1c-0.1,0.1-0.2,0.3-0.3,0.4c0.2,0,0.4-0.1,0.6-0.2c-0.2,0.3-0.4,0.5-0.7,0.6c-0.3,0.3-0.2,0.3,0,0.5
	c0.4,0.4,0.8-0.2,1.1-0.5c0,0.4,0.3,0,0.6,0.1c-0.6-0.1-0.3,0.4-0.6,0.5c-0.1-0.3-0.5,0.4-0.5,0.5c-0.1,0.3,0.1,0.4,0,0.5
	s-0.6,0.2-0.6,0.5c-0.1-0.1-0.2-0.1-0.3-0.2c0.1-0.1,0-0.3,0.1-0.4c-0.3,0.1-0.8,0.2-0.7,0.5c0,0.2,0.2,0.1,0.3,0.2s0.2,0.2,0.2,0.3
	s0.1,0,0.2-0.1c-0.1,0.1,0,0.2,0.1,0.3l0.3,1.2c0.1,0.4,0.1,0.9,0.1,1.4c0,0.6,0.1-0.5,0,0c0,0.6,0.1-0.5,0,0c0,0.6,0,1.1-0.6,1.4
	s-1.1-0.1-1.6,0.1c-0.3,0.1-0.4,0.3-0.6,0.5s-0.5,0.3-0.7,0.5c-0.5,0.3-0.9,0.8-1.2,1.3C62.1,61.8,62,61.8,61.9,61.8L61.9,61.8z"/>
<path class="st2" d="M110.8,89.8c0.2,0,0.4,0,0.6-0.1c0.1-0.1,0.4-0.2,0.5-0.4c-0.4-0.1-0.8,0.3-1,0.2
	C110.9,89.6,110.8,89.7,110.8,89.8l1.7,2.2c0,0.3-0.4,0.4-0.6,0.4c0,0-5.5,3.4-5.4,3.1s1.1-0.5,0.5-0.6h-0.2c0,0.1,0,0.1-0.1,0.2
	c-0.1-0.3-0.4-0.2-0.6-0.2c0.1,0.1,0.1,0.5,0,0.5s-0.2-0.2-0.2-0.1s0.2,0.3,0.1,0.4c-0.3-0.1-0.6,0-0.7,0.3c0,0.1,0.3,0,0.5-0.1
	s0.6-0.4,0.6-0.4c0,0.1,0,0.1-0.1,0.2c-0.6,0.3-1.2,0.6-1.8,0.9c-0.2,0.1-0.6,0.3-0.7,0.2c0.3-0.1,0.7-0.2,1-0.4
	c0.2-0.1,0.6-0.2,0.5-0.4c-0.6-0.4-1,0.9-1.2,0.2c-0.2,0.3-0.4,0-0.3,0.4c-0.3-0.2-0.6,0.2-0.9-0.2c-0.2,0.6-0.2,0.6-0.7,0.9
	c-0.1-0.3-0.2-0.4-0.5-0.4c0,0-0.1,0.3-0.2,0.3h-0.4c-0.4,0.1-0.4,0.4-0.8,0.5c-0.3,0.1-0.6,0-0.9-0.2c0.6,0.5-0.6,0.4-0.6,0.1
	c-0.4,0.3-0.7,0.6-1,0.9c-0.5,0.2-0.8,0.1-1.3,0.3c-0.3-0.3-0.7-0.3-1.1-0.2c0,0.2-0.1,0.3-0.2,0.5c-0.2,0.2-0.6,0.2-0.7,0.5
	c0-0.2-0.2-0.2-0.3-0.2s0-0.2-0.1-0.2s-0.2,0.1-0.1,0.2c0.6,0.3-0.2,0.3-0.3,0.4c0.6,0,1.6-0.3,1.6-0.1c-0.6,0.2-1.3,0.3-2,0.2
	c-0.6,0.1-1.3,0.3-1.8,0.6c-0.1-0.5,1.6-0.5,1.7-1.1c0.2-1-1.4-0.2-1.6-0.2c0.1,0,0.2,0.2,0.3,0.2c-0.1,0.1-0.1,0.1-0.1,0.2
	c0.1,0,0.2,0.1,0.2,0.3v0.1c-0.4,0.1-0.3-0.4-0.6-0.5c0.2,0.3,0.1,0.5-0.2,0.6h0.2v0.1c-0.3,0-0.6,0.1-0.9,0.1
	c0.5-0.4,0-0.3-0.2-0.6s0.1-0.5,0.3-0.8c-0.5-0.1,0.3-0.6,0.4-0.9s0.4-1.3,0.8-0.9c0.1,0,0.3,0.1,0.4,0.2c-0.3-0.5,0.6-0.1,0.6-0.3
	c0.1,0.1,0.2,0.3,0.3,0.4c0.1-0.4-0.2-0.6-0.1-0.9c0.3,0.1,0.5,0.2,0.5,0.5c0.4-0.6,0-0.2-0.1-0.5s-0.2-0.4,0.2-0.4
	c0.5-0.1,0.4,0.6,0.7,0.7c-0.1-0.2-0.3-0.6-0.2-0.7c0.1-0.3,0.5-0.2,0.6-0.4s0.4-0.6,0.6-0.6c0.1,0,0.2,0.1,0.2,0.2
	s-0.1,0.2-0.1,0.2v-0.2c-0.6,0.3,0.3,0.9,0.2,0.4c0.2-0.2,0.5,0.3,0.4-0.2s-0.4-0.3-0.2-0.7c0.2,0.1,1,0.4,0.4,0.5
	c0.1,0.1,0.2,0.1,0.3,0.1c0-0.2,0.1-0.1,0-0.3c0.1-0.1,0.3-0.1,0.4,0c0.1-0.2,0.1-0.1,0.2,0.1c0.2-0.2,0-0.4-0.2-0.6
	c0,0-0.2,0.3-0.3,0.2s0-0.4,0-0.5c0.4,0.1,0.5,0.4,0.7,0.6s1.1,0.1,1,0.5c0.2,0,0.3,0,0.4,0.2c0-0.2-0.1-0.3-0.3-0.4
	c0.2-0.1,0.4-0.3,0.6-0.4c-0.4,0.3-0.1,0.6,0.2,0.1s0.1-0.6-0.2-1c0.3,0,0.4-0.1,0.5,0.2h-0.2v0.1c0.2-0.1,0.3,0,0.3,0.2
	c0.1-0.2,0.2-0.2,0.4-0.1c-0.5-0.6,0.3-0.3,0.6-0.2c0-0.1-0.1-0.2-0.1-0.3h1.3c1.1,0.1,2.2,0.1,3.2-0.3c0.4-0.3,0.8-0.8,1.4-1.1
	c0.1-0.6,0.1-0.4,0.5-0.6c0.3-0.2,0.4-0.5,0.6-0.6s0.3-0.2,0.6-0.3h0.6c-0.1,0.3-0.2,0.6-0.5,0.6c0.1-0.1,0.2-0.3,0.3-0.4
	c-0.5,0.2-0.6,0.2-0.9,0.5c-0.2,0.2-0.4,0.4-0.6,0.6c-0.1,0.2,0.1,0.2,0.1,0.4s0.2,0.1-0.1,0.3c-0.1,0.1-0.4-0.2-0.4,0.1
	c0,0.1,0.2,0.4,0.2,0.5c-0.2,0-0.3-0.1-0.4-0.3c0,0.3-0.6,0.4-0.8,0.6c-0.1,0.2-0.2,0.4-0.4,0.6c-0.2,0.2-0.4-0.2-0.3,0.3
	c0.4-0.3,0.9,0.1,1.3,0.2c0,0,0.6,0,0.6-0.1s0.2-0.5-0.1-0.5c0-0.5,0.3-0.1,0.4-0.2c0.3-0.2,0.3-0.5,0.4-0.7V93
	c0.3,0.4,0.9,0.1,0.5-0.3c0.4-0.4,0.4,0.3,0.3,0.5c0.2-0.1,0.9-0.5,0.6-0.6c0.2-0.2,0.4,0,0.6,0.1c-0.1,0.1,0,0.3,0.1,0.4
	c0-0.2-0.1-0.6,0.1-0.7s0.3,0.4,0.2,0.5h0.1l0.4,0.4l0.4-0.4c0,0,0.1,0,0.1,0.1c0.1-0.2,0.1,0.1,0.1-0.2c0.4,0.2,0.3-0.2,0.4-0.3
	c0.1,0,0.3,0,0.4-0.1s0-0.2,0.3-0.3c0,0,0.2,0.2,0.3,0.2c-0.1-0.1-0.1-0.2-0.2-0.3c0.2-0.1,0.3-0.2,0.5-0.1h-2.1l0.1-0.1l-0.6-0.3
	c0,0.1,0.1,0.1,0.1,0.2S110,92,109.9,92c0.2,0,0.3,0.1,0.6,0.1c-0.1,0.2-0.1,0.4-0.1,0.6c0.3-0.1,0.2-0.3,0.1-0.6l-1.2-0.9
	c-0.2-0.3,0-0.5,0.3-0.5c-0.2,0.1-0.3,0.3-0.3,0.5l-0.7,1.8c0-0.7-0.3-0.3-0.5-0.7c0.1,0.1,0.3,0.1,0.4,0c-0.2-0.1-0.4-0.3-0.6-0.4
	c0.2,0-0.3,0.4-0.2,0.3c-0.1,0.1,0,0.2-0.2,0.2c0,0.2,0.2,0.4,0.4,0.4c0.1-0.1,0.6-0.1,0.7,0.3l-1.8,0.9l-0.2-0.2
	c0.3-0.1,0.1,0.1,0.2,0.2L99,99c-0.3,0.1-0.7,0-0.7,0.3c0.4,0.2,0.9-0.2,1.3-0.3s1-0.4,1.5-0.5c0.9-0.4,1.9-1,2.8-1.5
	c-0.4-0.1-0.7,0.3-1.1,0.4s-0.9,0.4-1.3,0.6c-0.8,0.4-1.6,0.8-2.5,1l-2.1,0.3c0.6-0.3,1.3-0.5,2-0.6c0.1,0.2-0.7,0.5-1.1,0.6
	c-0.7,0.3-1.5,0.6-2.4,0.6c0.4-0.3,0.9-0.5,1.5-0.6l-4.3,0.4c0.3-0.1,0.2-0.4,0-0.5c-0.1,0.2,0,0.4,0,0.5h-2.4
	c0,0.5-0.6,0.8-0.8,1.2c0.1-0.1,0-0.1,0-0.2c-0.1,0.2-0.8,0.8-1.1,0.6s-0.1-0.1,0-0.4s0.1-0.2,0.2-0.4s0.1-1,0.4-1.2
	c0.1-0.1,0.9-0.1,1.2-0.2c0,0.2,0,0.4,0.2,0.5"/>
</svg>
