<?xml version="1.0" encoding="utf-8"?>
<!-- Generator: Adobe Illustrator 22.1.0, SVG Export Plug-In . SVG Version: 6.00 Build 0)  -->
<svg version="1.1" id="Layer_1" xmlns="http://www.w3.org/2000/svg" xmlns:xlink="http://www.w3.org/1999/xlink" x="0px" y="0px"
	 viewBox="0 0 143 143" style="enable-background:new 0 0 143 143;" xml:space="preserve">
<style type="text/css">
	.st0{fill:#FFFFFF;stroke:#00933B;stroke-miterlimit:10;}
	.st1{fill:#00933B;}
	.st2{opacity:0.7;fill:#FFFFFF;enable-background:new    ;}
</style>
<circle class="st0" cx="71.5" cy="71.5" r="70"/>
<circle class="st1" cx="71.5" cy="71.5" r="56.3"/>
<path class="st2" d="M97,97.2l3.8-24.8c-1.8-0.4-2.6-0.9-2.7-1.7c0-0.4,0.1-0.8,0.4-1.1c-1-2.7,2.8-5.7,3-5.8l0.1-0.1h0.2
	c0.3-0.1,0.4-0.2,0.5-0.3c0.2-0.4,0.1-1.2,0-1.5l-0.1-0.4l0.2-0.3c0.4-0.4,2.1-3.3,3.1-5.1l0.1-0.1c1-0.9,0.4-2,0.1-2.4
	c-1.3-0.6-2.1-2-2.6-3.2l-11.8-1l0.1-0.4c-0.2-0.3-1.9-0.6-5.1-0.3c-0.4,0-0.8,0.1-1.2,0.2h-0.3l-0.2-0.1c-0.1,0-0.6-0.3-4,0.1
	c-0.9,0.1-1.9,0.2-2.8,0.4c-0.9,0.4-1.8,0.6-2.5,0.7c-1.2,0.1-1.8-0.1-2.1-0.3c-0.4-0.1-1-0.2-1.7-0.1c-1.3,0.1-2.5,0.6-2.5,0.6
	l-0.4,0.2l-0.3-0.3c-1-1-3.7-1.4-4.7-1.5h-0.2c-0.7-0.3-1.1-0.4-1.3-0.3c-0.1,0-0.2,0-0.2,0.1c-0.3,0.1-0.3,0.6-0.3,0.6l-0.1,0.5
	l-0.6,0.1c-0.2,0-0.4,0.1-0.6,0.1H60c-5.2,0.6-7.1-2.5-7.1-2.6l-0.2-0.3l0.1-0.3c0.7-1.6,0.8-2.9,0.3-3.9c-0.4-0.9-1.3-1.3-1.5-1.5
	C50.4,41,49.5,40.6,49,40c-0.2-0.3-0.3-0.5-0.4-0.7c-0.3,0-0.7,0-1.1,0c-0.4,0-0.8,0.1-1.2,0.2L46,44.1C47.6,55,34.3,79,34.3,79
	L34,86.7l0.4,1.9C40.2,90.6,74.1,94.8,97,97.2z"/>
</svg>
