<?xml version="1.0" encoding="utf-8"?>
<!-- Generator: Adobe Illustrator 22.1.0, SVG Export Plug-In . SVG Version: 6.00 Build 0)  -->
<svg version="1.1" id="Layer_1" xmlns="http://www.w3.org/2000/svg" xmlns:xlink="http://www.w3.org/1999/xlink" x="0px" y="0px"
	 viewBox="0 0 143 143" style="enable-background:new 0 0 143 143;" xml:space="preserve">
<style type="text/css">
	.st0{fill:#FFFFFF;stroke:#0070D6;stroke-miterlimit:10;}
	.st1{fill:#0070D6;}
	.st2{opacity:0.7;fill:#FFFFFF;}
</style>
<circle class="st0" cx="71.5" cy="71.5" r="70"/>
<circle class="st1" cx="71.5" cy="71.5" r="56.3"/>
<path class="st2" d="M108.1,84.9l0.1-2.9l0.1-0.1c0.7-0.8,0.7-2-0.1-2.8c-0.3-0.1-0.5-0.2-0.5-0.5c-0.1-0.5,0.4-0.8,0.9-1.1
	c0.8-0.4,1-2.4,1-3.3v-0.1c0.4-1.8-1.4-3.5-1.5-3.6l-0.4-0.4L108,70c-0.1-0.5-0.2-0.9-0.4-1.3c-1.7-0.6-1.5-3.1-1.5-3.7
	c-0.3-1.2,0-8,0-9.4c0-0.1,0-0.2-0.1-0.3c-0.3-0.2-0.6-0.2-0.9-0.2c-0.5,0-1,0.1-1.5,0.2c-0.1,0.1-0.2,0.2-0.4,0.2
	c-0.1,0-0.2,0-0.3,0c-1,0-2.2-1.5-2.6-2c-0.3-0.3-0.6-0.6-1-0.8c0,0.1,0,0.3,0,0.5l0.1,0.5h-2l-0.1-0.1c-0.3-0.3-0.5-0.4-0.6-0.4
	s-0.2,0.1-0.3,0.2l-0.1,0.2L94,54c-0.4,0.4-1,0.6-1.6,0.6s-1.3-0.2-1.8-0.6h-1.8c-0.1,0.5-0.6,0.9-1.1,0.9c-1,0-2.3-1.2-2.8-1.7
	l-0.5-0.1c-0.2,0.5-0.7,0.7-1.2,0.7c-0.7,0-1.2-0.2-1.4-0.6c-0.1-0.2-0.1-0.4-0.1-0.6c-0.3-0.1-0.5-0.2-0.7-0.5
	c-0.1-0.1-0.1-0.3-0.2-0.4h-0.6c0,0.3-0.2,0.5-0.5,0.5h-0.1c-0.3,0-0.6-0.3-0.8-0.7l0,0v-0.1c-1.2-0.5-2.6-0.7-3.9-0.7h-0.4v-0.4
	c0-0.4,0-0.8-0.1-1.3c-0.1,0.2-0.2,0.4-0.4,0.5c-0.1,0.1-0.2,0.1-0.3,0.1c-0.2,0-0.4-0.1-0.6-0.2L73,49.5c-0.1,0.1-0.3,0.2-0.5,0.2
	h-0.1c-1,0-2.3-1.6-2.7-2.2l-0.2-0.3l0.2-0.2c0.2-0.7,0.4-7.4,0.6-13.8l-16.9-0.5L51,65.6h-0.4c-3.2-0.1-19.2-0.5-20.8-1.6
	c-0.4-0.1-0.7-0.2-1.1-0.3c-0.1,0-0.2,0-0.4,0.1c0,0-0.3,0.3,0.5,1.7l0,0l0.5,0.1c1.2,0.4,2.1,1.5,2.2,2.8c2.5,0.9,4.2,4.3,4.2,4.3
	C39.3,75.1,40,78,40,78c-0.8,5.8,2.5,6.5,2.5,6.5c1.7,0.7,3.2,1.7,4.4,3.2c2,2.2,3.2-0.4,3.2-0.4c1.9-3.4,2.4-3.8,2.4-3.8
	c0.7,0,2.2-1.4,2.2-1.4c2.5,1.6,6.2,0.7,6.2,0.7l-0.2,0.4c-0.2,0.4,4.8,5.1,4.8,5.1c-0.6,1.1,1.2,4,1.2,4c0.6,3.4,1.5,2.5,1.5,2.5
	c-0.2,0.8,2.9,4.5,2.9,4.5c1,0.2,1.6,1.1,1.5,2c0,0.2-0.1,0.4-0.2,0.6c0.9,0.6,0.2,2.4,0.2,2.4c1,0.1,1.8,1,1.7,2v0.1
	c0.1,3,4.6,3.4,4.6,3.4c1.5,1.7,2.7,1.3,2.7,1.3c3.2-0.2,3.1,1.3,3.1,1.3c0.6,0.6,1.5,0.6,2.1,0c0.1-0.2,0.3-0.3,0.3-0.5
	c-4.2-9.4,2.6-15,2.6-15c0.6,0.1,3.9-2.7,3.9-2.7c0.7-0.8,6.2-3,6.2-3c1.1-1.4,2.4-2.5,3.9-3.4l-0.3-0.8
	C104.8,86.2,106.4,85.5,108.1,84.9z"/>
</svg>
