<?xml version="1.0" encoding="utf-8"?>
<!-- Generator: Adobe Illustrator 22.1.0, SVG Export Plug-In . SVG Version: 6.00 Build 0)  -->
<svg version="1.1" id="Layer_1" xmlns="http://www.w3.org/2000/svg" xmlns:xlink="http://www.w3.org/1999/xlink" x="0px" y="0px"
	 viewBox="0 0 143 143" style="enable-background:new 0 0 143 143;" xml:space="preserve">
<style type="text/css">
	.st0{fill:#FFFFFF;stroke:#009DE2;stroke-miterlimit:10;}
	.st1{fill:#009DE2;}
	.st2{opacity:0.7;fill:#FFFFFF;enable-background:new    ;}
</style>
<circle class="st0" cx="71.5" cy="71.5" r="70"/>
<circle class="st1" cx="71.5" cy="71.5" r="56.3"/>
<path class="st2" d="M41.9,75.6l3.4-2.9l0.1,0.4L45,73.6l0.6,0.3v0.9l0.9,1.2l0.7,0.1l1,1h0.6l0.4-0.2l1.7-0.8l0.5-0.8l1.5,1.3
	l0.5-0.5l3.3-1l-0.3-0.4l0.1-0.8l1.3,0.8l2.3-1.3l0.5,0.7l1.7-1.2L62,72.7l0.2-0.5l0.8-0.6l-0.8-0.8l0.5-0.9l2.1-2.7l0.6-0.8
	l0.7-1.2l0.1-1l1.2-1l-0.1-0.6l0.8-0.6l0.7-2.9l1.2,0.4l0.6,1.3l2.1,0.5l3-5.7l1.2,1.2l0.8-1.7l0.4-0.3v-0.3l0.3-0.2v0.5l0.3-0.2
	l0.6-0.9l0.4,0.2l0.3-0.4V53l1.7-1.7L81.4,51l0.9-2.3l0.6-0.7l4.5,3.9l1.3-2.5l1.7,0.2l0.2,0.6l0.7,0.3l0.2,0.3l-0.8,0.5V52l0.5,0.2
	l0.2,0.5l1.6,0.2l1.8,1.4l0.8,1v2.1l-0.8,0.4v0.6L93.5,59l-0.7,1.4l0.4,1.7h1.3l1.3-0.8l0.3,0.5l-0.2,0.8l0.7,0.7V64l1.3,0.7
	l2.3,0.1v0.6l0.8,0.9l1,0.9l1.6,0.7l0.2,0.5l-0.4,1.2l-0.2,1.3l-0.3,0.2v0.7l-1.2-0.8l0.1-0.5l-0.6-0.2l0.2,0.8l-0.2,0.4l-1.1-2.2
	h-0.4l-0.9-0.6l-0.2,0.2l0.6,0.8l0.9,0.8l0.3,0.8l0.7,0.7l2.3,0.6l-1,0.4l1.3,0.8l0.2,0.4v0.9l-0.5,0.5l-0.5-0.7l-1-0.7v0.3l0.4,0.5
	l-0.5-0.2l0.5,0.5l-0.3,0.4v0.3l0.5-0.1v0.5h-0.4v0.7l0.8,0.6l0.5,0.5l-0.3,0.2l0.2,0.5l0.3-0.3l-0.2,1h-0.6L102,80l-0.4-0.6
	l-0.8-0.8L99.9,78v-0.7l-0.3-0.5L98.1,77l0.7,0.8l0.8,0.3l-0.1,0.8l1,0.5l0.9,0.8l-0.2,1h0.5l0.3-0.2h0.7l0.3-0.5l0.6-0.3l0.8,0.6
	h1.7l0.4-0.2l0.3,1.4l0.3,1.1l-0.3,0.6l0.1,0.3l-0.3,0.2l0.1,1.1l-25.6,0.2l-19-0.1l-13.5-0.6H27.9l1.6-0.9h1l0.6-0.4l2.4-0.6
	l0.6-1.4l1.9-0.3l0.3-0.8l-0.1-0.5l1.3-0.7l0.2-1L41.9,75.6z"/>
</svg>
