<svg id="Layer_1" data-name="Layer 1" xmlns="http://www.w3.org/2000/svg" width="143" height="143" viewBox="0 0 143 143"><title>icons-large-icon-ixl-improves-math-skills-in-title-I-schools</title><circle cx="71.5" cy="71.5" r="70" fill="#fff" stroke="#0bc1b6" stroke-miterlimit="10"/><circle cx="71.5" cy="71.5" r="56.25" fill="#0bc1b6"/><polygon points="111.06 89.6 110.38 67.35 109.99 46.88 78.56 46.86 47.16 45.77 51.59 59.23 52.75 72.42 49.88 76.53 45.68 63.78 30.88 60.01 31.69 75.49 33.86 88.91 36.16 88.83 39.53 89.1 42.14 90.69 45.3 91.76 47.22 94.9 47.39 97.58 48.11 99.84 50.67 100.56 53.41 100.63 57.79 99.11 60.34 98.69 64.3 99.5 66.03 100.38 68.39 99.88 70.96 98.66 75.98 98.97 80.14 97.28 82.33 96.01 85.16 96.74 89.16 95.1 112.07 94.84 112.12 92.01 111.06 89.6" fill="#fff" opacity="0.75"/></svg>